<svg width="69" height="18" viewBox="0 0 69 18" fill="none" xmlns="http://www.w3.org/2000/svg">
<path d="M10.81 10.8475L8.3605 4.442C8.18417 4.005 8.00783 3.453 7.8315 2.786C7.74717 3.11567 7.659 3.42233 7.567 3.706C7.48267 3.98967 7.39833 4.24267 7.314 4.465L4.876 10.8475H10.81ZM15.6515 17H13.7655C13.5508 17 13.3745 16.9463 13.2365 16.839C13.0985 16.7317 12.9988 16.5937 12.9375 16.425L11.477 12.5955H4.1975L2.737 16.425C2.68333 16.5707 2.58367 16.7048 2.438 16.8275C2.29233 16.9425 2.116 17 1.909 17H0.023L6.601 0.485999H9.0735L15.6515 17Z" fill="black"/>
<path d="M20.8757 14.125C21.2437 14.608 21.6424 14.9453 22.0717 15.137C22.5011 15.3287 22.9687 15.4245 23.4747 15.4245C24.5174 15.4245 25.3186 15.0527 25.8782 14.309C26.4456 13.5653 26.7292 12.4422 26.7292 10.9395C26.7292 9.55183 26.4801 8.536 25.9817 7.892C25.4834 7.24033 24.7781 6.9145 23.8657 6.9145C23.2217 6.9145 22.6621 7.06017 22.1867 7.3515C21.7191 7.64283 21.2821 8.05683 20.8757 8.5935V14.125ZM20.8757 6.926C21.3587 6.38933 21.9069 5.95617 22.5202 5.6265C23.1336 5.29683 23.8312 5.132 24.6132 5.132C25.2956 5.132 25.9089 5.26617 26.4532 5.5345C27.0052 5.79517 27.4729 6.17467 27.8562 6.673C28.2396 7.16367 28.5347 7.76167 28.7417 8.467C28.9487 9.17233 29.0522 9.96967 29.0522 10.859C29.0522 11.802 28.9334 12.6607 28.6957 13.435C28.4657 14.2093 28.1322 14.8725 27.6952 15.4245C27.2659 15.9765 26.7407 16.4058 26.1197 16.7125C25.4987 17.0115 24.8011 17.161 24.0267 17.161C23.6511 17.161 23.3061 17.1227 22.9917 17.046C22.6774 16.977 22.3861 16.8735 22.1177 16.7355C21.8571 16.5975 21.6156 16.4288 21.3932 16.2295C21.1709 16.0302 20.9601 15.804 20.7607 15.551L20.6572 16.5285C20.5959 16.8428 20.4042 17 20.0822 17H18.6332V0.0259992H20.8757V6.926ZM37.9078 5.132C38.7664 5.132 39.5408 5.27383 40.2308 5.5575C40.9284 5.8335 41.5188 6.236 42.0018 6.765C42.4924 7.28633 42.8681 7.91883 43.1288 8.6625C43.3894 9.3985 43.5198 10.2265 43.5198 11.1465C43.5198 12.0665 43.3894 12.8983 43.1288 13.642C42.8681 14.3857 42.4924 15.0182 42.0018 15.5395C41.5188 16.0608 40.9284 16.4633 40.2308 16.747C39.5408 17.023 38.7664 17.161 37.9078 17.161C37.0414 17.161 36.2594 17.023 35.5618 16.747C34.8718 16.4633 34.2814 16.0608 33.7908 15.5395C33.3001 15.0182 32.9206 14.3857 32.6523 13.642C32.3916 12.8983 32.2613 12.0665 32.2613 11.1465C32.2613 10.2265 32.3916 9.3985 32.6523 8.6625C32.9206 7.91883 33.3001 7.28633 33.7908 6.765C34.2814 6.236 34.8718 5.8335 35.5618 5.5575C36.2594 5.27383 37.0414 5.132 37.9078 5.132ZM37.9078 15.413C39.0118 15.413 39.8359 15.0412 40.3803 14.2975C40.9246 13.5538 41.1968 12.5073 41.1968 11.158C41.1968 9.80867 40.9246 8.76217 40.3803 8.0185C39.8359 7.26717 39.0118 6.8915 37.9078 6.8915C36.7884 6.8915 35.9528 7.26717 35.4008 8.0185C34.8564 8.76217 34.5843 9.80867 34.5843 11.158C34.5843 12.5073 34.8564 13.5538 35.4008 14.2975C35.9528 15.0412 36.7884 15.413 37.9078 15.413ZM57.1205 5.316V17H55.775C55.4683 17 55.269 16.8505 55.177 16.5515L55.016 15.3785C54.763 15.6468 54.4985 15.8922 54.2225 16.1145C53.9465 16.3368 53.6513 16.5285 53.337 16.6895C53.0227 16.8428 52.6892 16.9617 52.3365 17.046C51.9838 17.138 51.6043 17.184 51.198 17.184C50.554 17.184 49.9867 17.0767 49.496 16.862C49.013 16.6473 48.6067 16.3483 48.277 15.965C47.9473 15.574 47.6982 15.1063 47.5295 14.562C47.3608 14.0177 47.2765 13.4158 47.2765 12.7565V5.316H49.5305V12.7565C49.5305 13.5922 49.7222 14.2438 50.1055 14.7115C50.4888 15.1715 51.0753 15.4015 51.865 15.4015C52.44 15.4015 52.9767 15.2673 53.475 14.999C53.9733 14.723 54.441 14.3473 54.878 13.872V5.316H57.1205ZM65.2877 17.184C64.3447 17.184 63.6163 16.9195 63.1027 16.3905C62.5967 15.8615 62.3437 15.1063 62.3437 14.125V7.133H60.9867C60.8563 7.133 60.7452 7.09467 60.6532 7.018C60.5688 6.93367 60.5267 6.811 60.5267 6.65V5.7415L62.4242 5.477L62.9302 1.9925C62.9608 1.86217 63.0183 1.7625 63.1027 1.6935C63.1947 1.61683 63.3097 1.5785 63.4477 1.5785H64.5862V5.5H67.8982V7.133H64.5862V13.9755C64.5862 14.4355 64.6973 14.7805 64.9197 15.0105C65.1497 15.2328 65.441 15.344 65.7937 15.344C66.0007 15.344 66.177 15.3172 66.3227 15.2635C66.476 15.2098 66.6063 15.1523 66.7137 15.091C66.821 15.022 66.913 14.9607 66.9897 14.907C67.0663 14.8533 67.1353 14.8265 67.1967 14.8265C67.2733 14.8265 67.3308 14.8457 67.3692 14.884C67.4152 14.9147 67.4612 14.9683 67.5072 15.045L68.1742 16.126C67.8062 16.4633 67.3692 16.724 66.8632 16.908C66.3572 17.092 65.832 17.184 65.2877 17.184Z" fill="white"/>
</svg>
