<svg width="40" height="40" viewBox="0 0 40 40" fill="none" xmlns="http://www.w3.org/2000/svg">
<g id="library_books_24px">
<path id="icon/av/library_books_24px" fill-rule="evenodd" clip-rule="evenodd" d="M13.3335 3.33334H33.3335C35.1668 3.33334 36.6668 4.83334 36.6668 6.66668V26.6667C36.6668 28.5 35.1668 30 33.3335 30H13.3335C11.5001 30 10.0001 28.5 10.0001 26.6667V6.66668C10.0001 4.83334 11.5001 3.33334 13.3335 3.33334ZM3.3335 10H6.66683V33.3333H30.0002V36.6667H6.66683C4.8335 36.6667 3.3335 35.1667 3.3335 33.3333V10ZM33.3335 26.6667H13.3335V6.66668H33.3335V26.6667ZM30.0002 15H16.6669V18.3333H30.0002V15ZM16.6669 20H23.3335V23.3333H16.6669V20ZM30.0002 10H16.6669V13.3333H30.0002V10Z" fill="#F2F2F2"/>
</g>
</svg>
