<svg width="20" height="20" viewBox="0 0 20 20" fill="none" xmlns="http://www.w3.org/2000/svg">
<path d="M11.0986 14.2969C11.5301 14.2969 11.8799 13.9471 11.8799 13.5156C11.8799 13.0842 11.5301 12.7344 11.0986 12.7344C10.6672 12.7344 10.3174 13.0842 10.3174 13.5156C10.3174 13.9471 10.6672 14.2969 11.0986 14.2969Z" fill="white" fill-opacity="0.9"/>
<path d="M13.7158 18.4375H3.98926C3.12769 18.4375 2.42676 17.7365 2.42676 16.875V10.4687C2.42676 9.60715 3.12769 8.90621 3.98926 8.90621H15.2393C15.4171 8.90621 15.5583 8.92191 15.6708 8.95414C16.0855 9.07297 16.5181 8.83305 16.637 8.41828C16.7558 8.00352 16.5159 7.57094 16.1011 7.45207C15.8467 7.37918 15.5648 7.34375 15.2393 7.34375H14.3003V4.58852C14.3003 2.0584 12.1975 0 9.61281 0C7.02812 0 4.92531 2.0584 4.92531 4.58852V7.34375H3.98926C2.26613 7.34375 0.864258 8.74562 0.864258 10.4688V16.875C0.864258 18.5981 2.26613 20 3.98926 20H13.7158C14.1473 20 14.4971 19.6502 14.4971 19.2188C14.4971 18.7873 14.1473 18.4375 13.7158 18.4375ZM6.48781 4.58852C6.48781 2.91996 7.88969 1.5625 9.61281 1.5625C11.3359 1.5625 12.7378 2.91996 12.7378 4.58852V7.34375H6.48781V4.58852Z" fill="white" fill-opacity="0.9"/>
<path d="M8.16895 14.2969C8.60042 14.2969 8.9502 13.9471 8.9502 13.5156C8.9502 13.0842 8.60042 12.7344 8.16895 12.7344C7.73747 12.7344 7.3877 13.0842 7.3877 13.5156C7.3877 13.9471 7.73747 14.2969 8.16895 14.2969Z" fill="white" fill-opacity="0.9"/>
<path d="M19.6185 12.9379C19.6014 11.4227 18.3634 10.1953 16.8442 10.1953C15.3145 10.1953 14.0698 11.4399 14.0698 12.9697C14.0698 13.4012 14.4196 13.751 14.8511 13.751C15.2826 13.751 15.6323 13.4012 15.6323 12.9697C15.6323 12.3015 16.176 11.7578 16.8443 11.7578C17.5126 11.7578 18.0562 12.3015 18.0562 12.9697C18.0562 12.9768 18.0563 12.9839 18.0565 12.9909C18.0484 13.4693 17.761 13.8976 17.3196 14.0861C16.5563 14.412 16.063 15.1649 16.063 16.0041V16.6797C16.063 17.1112 16.4128 17.4609 16.8443 17.4609C17.2758 17.4609 17.6255 17.1112 17.6255 16.6797V16.0041C17.6255 15.7916 17.7463 15.6029 17.9331 15.5231C18.9576 15.0857 19.6194 14.0834 19.6192 12.9696C19.6192 12.9589 19.6189 12.9484 19.6185 12.9379Z" fill="white" fill-opacity="0.9"/>
<path d="M16.8408 20C17.2723 20 17.6221 19.6502 17.6221 19.2188C17.6221 18.7873 17.2723 18.4375 16.8408 18.4375C16.4093 18.4375 16.0596 18.7873 16.0596 19.2188C16.0596 19.6502 16.4093 20 16.8408 20Z" fill="white" fill-opacity="0.9"/>
<path d="M5.23926 14.2969C5.67073 14.2969 6.02051 13.9471 6.02051 13.5156C6.02051 13.0842 5.67073 12.7344 5.23926 12.7344C4.80779 12.7344 4.45801 13.0842 4.45801 13.5156C4.45801 13.9471 4.80779 14.2969 5.23926 14.2969Z" fill="white" fill-opacity="0.9"/>
</svg>
