<svg width="90" height="18" viewBox="0 0 90 18" fill="none" xmlns="http://www.w3.org/2000/svg">
<path d="M13.5595 0.485999V17H11.11V9.5595H2.4965V17H0.0355V0.485999H2.4965V7.777H11.11V0.485999H13.5595Z" fill="black"/>
<path d="M23.5444 5.132C24.403 5.132 25.1774 5.27383 25.8674 5.5575C26.565 5.8335 27.1554 6.236 27.6384 6.765C28.129 7.28633 28.5047 7.91883 28.7654 8.6625C29.026 9.3985 29.1564 10.2265 29.1564 11.1465C29.1564 12.0665 29.026 12.8983 28.7654 13.642C28.5047 14.3857 28.129 15.0182 27.6384 15.5395C27.1554 16.0608 26.565 16.4633 25.8674 16.747C25.1774 17.023 24.403 17.161 23.5444 17.161C22.678 17.161 21.896 17.023 21.1984 16.747C20.5084 16.4633 19.918 16.0608 19.4274 15.5395C18.9367 15.0182 18.5572 14.3857 18.2889 13.642C18.0282 12.8983 17.8979 12.0665 17.8979 11.1465C17.8979 10.2265 18.0282 9.3985 18.2889 8.6625C18.5572 7.91883 18.9367 7.28633 19.4274 6.765C19.918 6.236 20.5084 5.8335 21.1984 5.5575C21.896 5.27383 22.678 5.132 23.5444 5.132ZM23.5444 15.413C24.6484 15.413 25.4725 15.0412 26.0169 14.2975C26.5612 13.5538 26.8334 12.5073 26.8334 11.158C26.8334 9.80867 26.5612 8.76217 26.0169 8.0185C25.4725 7.26717 24.6484 6.8915 23.5444 6.8915C22.425 6.8915 21.5894 7.26717 21.0374 8.0185C20.493 8.76217 20.2209 9.80867 20.2209 11.158C20.2209 12.5073 20.493 13.5538 21.0374 14.2975C21.5894 15.0412 22.425 15.413 23.5444 15.413ZM35.2821 14.125C35.6501 14.608 36.0488 14.9453 36.4781 15.137C36.9074 15.3287 37.3751 15.4245 37.8811 15.4245C38.9238 15.4245 39.7249 15.0527 40.2846 14.309C40.8519 13.5653 41.1356 12.4422 41.1356 10.9395C41.1356 9.55183 40.8864 8.536 40.3881 7.892C39.8898 7.24033 39.1844 6.9145 38.2721 6.9145C37.6281 6.9145 37.0684 7.06017 36.5931 7.3515C36.1254 7.64283 35.6884 8.05683 35.2821 8.5935V14.125ZM35.2821 6.926C35.7651 6.38933 36.3133 5.95617 36.9266 5.6265C37.5399 5.29683 38.2376 5.132 39.0196 5.132C39.7019 5.132 40.3153 5.26617 40.8596 5.5345C41.4116 5.79517 41.8793 6.17467 42.2626 6.673C42.6459 7.16367 42.9411 7.76167 43.1481 8.467C43.3551 9.17233 43.4586 9.96967 43.4586 10.859C43.4586 11.802 43.3398 12.6607 43.1021 13.435C42.8721 14.2093 42.5386 14.8725 42.1016 15.4245C41.6723 15.9765 41.1471 16.4058 40.5261 16.7125C39.9051 17.0115 39.2074 17.161 38.4331 17.161C38.0574 17.161 37.7124 17.1227 37.3981 17.046C37.0838 16.977 36.7924 16.8735 36.5241 16.7355C36.2634 16.5975 36.0219 16.4288 35.7996 16.2295C35.5773 16.0302 35.3664 15.804 35.1671 15.551L35.0636 16.5285C35.0023 16.8428 34.8106 17 34.4886 17H33.0396V0.0259992H35.2821V6.926ZM49.5771 14.125C49.9451 14.608 50.3438 14.9453 50.7731 15.137C51.2025 15.3287 51.6701 15.4245 52.1761 15.4245C53.2188 15.4245 54.02 15.0527 54.5796 14.309C55.147 13.5653 55.4306 12.4422 55.4306 10.9395C55.4306 9.55183 55.1815 8.536 54.6831 7.892C54.1848 7.24033 53.4795 6.9145 52.5671 6.9145C51.9231 6.9145 51.3635 7.06017 50.8881 7.3515C50.4205 7.64283 49.9835 8.05683 49.5771 8.5935V14.125ZM49.5771 6.926C50.0601 6.38933 50.6083 5.95617 51.2216 5.6265C51.835 5.29683 52.5326 5.132 53.3146 5.132C53.997 5.132 54.6103 5.26617 55.1546 5.5345C55.7066 5.79517 56.1743 6.17467 56.5576 6.673C56.941 7.16367 57.2361 7.76167 57.4431 8.467C57.6501 9.17233 57.7536 9.96967 57.7536 10.859C57.7536 11.802 57.6348 12.6607 57.3971 13.435C57.1671 14.2093 56.8336 14.8725 56.3966 15.4245C55.9673 15.9765 55.4421 16.4058 54.8211 16.7125C54.2001 17.0115 53.5025 17.161 52.7281 17.161C52.3525 17.161 52.0075 17.1227 51.6931 17.046C51.3788 16.977 51.0875 16.8735 50.8191 16.7355C50.5585 16.5975 50.317 16.4288 50.0946 16.2295C49.8723 16.0302 49.6615 15.804 49.4621 15.551L49.3586 16.5285C49.2973 16.8428 49.1056 17 48.7836 17H47.3346V0.0259992H49.5771V6.926ZM63.9757 5.316V17H61.7332V5.316H63.9757ZM64.4012 1.705C64.4012 1.912 64.359 2.11133 64.2747 2.303C64.1903 2.487 64.0753 2.65183 63.9297 2.7975C63.7917 2.9355 63.6268 3.04667 63.4352 3.131C63.2435 3.20767 63.0442 3.246 62.8372 3.246C62.6302 3.246 62.4347 3.20767 62.2507 3.131C62.0667 3.04667 61.9018 2.9355 61.7562 2.7975C61.6182 2.65183 61.507 2.487 61.4227 2.303C61.346 2.11133 61.3077 1.912 61.3077 1.705C61.3077 1.49033 61.346 1.291 61.4227 1.107C61.507 0.915332 61.6182 0.750499 61.7562 0.612499C61.9018 0.466832 62.0667 0.355665 62.2507 0.278999C62.4347 0.194666 62.6302 0.1525 62.8372 0.1525C63.0442 0.1525 63.2435 0.194666 63.4352 0.278999C63.6268 0.355665 63.7917 0.466832 63.9297 0.612499C64.0753 0.750499 64.1903 0.915332 64.2747 1.107C64.359 1.291 64.4012 1.49033 64.4012 1.705ZM76.342 9.8585C76.342 9.41383 76.2768 9.00367 76.1465 8.628C76.0238 8.25233 75.8398 7.9265 75.5945 7.6505C75.3491 7.3745 75.0501 7.15983 74.6975 7.0065C74.3448 6.85317 73.9385 6.7765 73.4785 6.7765C72.5355 6.7765 71.7918 7.04867 71.2475 7.593C70.7108 8.13733 70.3696 8.8925 70.224 9.8585H76.342ZM78.1935 15.3325C77.9175 15.6545 77.5993 15.9343 77.239 16.172C76.8786 16.402 76.4953 16.5898 76.089 16.7355C75.6826 16.8812 75.261 16.9885 74.824 17.0575C74.3946 17.1265 73.9691 17.161 73.5475 17.161C72.7425 17.161 71.995 17.0268 71.305 16.7585C70.6226 16.4825 70.0285 16.0838 69.5225 15.5625C69.0241 15.0335 68.6331 14.3818 68.3495 13.6075C68.0735 12.8255 67.9355 11.9285 67.9355 10.9165C67.9355 10.1038 68.062 9.34867 68.315 8.651C68.568 7.94567 68.9283 7.33233 69.396 6.811C69.8713 6.28967 70.4501 5.8795 71.1325 5.5805C71.8148 5.2815 72.5815 5.132 73.4325 5.132C74.1455 5.132 74.801 5.25083 75.399 5.4885C76.0046 5.7185 76.526 6.05583 76.963 6.5005C77.4 6.94517 77.7411 7.49333 77.9865 8.145C78.2395 8.79667 78.366 9.54033 78.366 10.376C78.366 10.721 78.3276 10.9548 78.251 11.0775C78.1743 11.1925 78.0325 11.25 77.8255 11.25H70.1665C70.1895 11.9477 70.2891 12.5572 70.4655 13.0785C70.6418 13.5922 70.8833 14.0215 71.19 14.3665C71.5043 14.7115 71.8761 14.9683 72.3055 15.137C72.7348 15.3057 73.214 15.39 73.743 15.39C74.2413 15.39 74.6706 15.3325 75.031 15.2175C75.399 15.1025 75.7133 14.9798 75.974 14.8495C76.2423 14.7115 76.4646 14.585 76.641 14.47C76.825 14.355 76.986 14.2975 77.124 14.2975C77.308 14.2975 77.4498 14.3665 77.5495 14.5045L78.1935 15.3325ZM89.0448 7.3285C88.9834 7.42817 88.9183 7.501 88.8493 7.547C88.7803 7.58533 88.6921 7.6045 88.5848 7.6045C88.4621 7.6045 88.3241 7.56233 88.1708 7.478C88.0251 7.39367 87.8449 7.30167 87.6303 7.202C87.4233 7.10233 87.1779 7.01033 86.8943 6.926C86.6106 6.84167 86.2733 6.7995 85.8823 6.7995C85.5603 6.7995 85.2651 6.84167 84.9968 6.926C84.7361 7.00267 84.5138 7.11383 84.3298 7.2595C84.1458 7.3975 84.0039 7.56617 83.9043 7.7655C83.8046 7.95717 83.7548 8.16417 83.7548 8.3865C83.7548 8.67783 83.8391 8.91933 84.0078 9.111C84.1841 9.30267 84.4103 9.4675 84.6863 9.6055C84.9699 9.7435 85.2881 9.87 85.6408 9.985C86.0011 10.0923 86.3653 10.2073 86.7333 10.33C87.1089 10.4527 87.4731 10.5945 87.8258 10.7555C88.1861 10.9088 88.5043 11.1043 88.7803 11.342C89.0639 11.572 89.2901 11.8518 89.4588 12.1815C89.6351 12.5112 89.7233 12.9137 89.7233 13.389C89.7233 13.9333 89.6236 14.4393 89.4243 14.907C89.2326 15.367 88.9451 15.7657 88.5618 16.103C88.1861 16.4403 87.7184 16.7048 87.1588 16.8965C86.5991 17.0882 85.9589 17.184 85.2383 17.184C84.4333 17.184 83.6896 17.0498 83.0073 16.7815C82.3249 16.5132 81.7538 16.172 81.2938 15.758L81.8228 14.8955C81.8841 14.7882 81.9608 14.7077 82.0528 14.654C82.1448 14.5927 82.2674 14.562 82.4208 14.562C82.5664 14.562 82.7159 14.6157 82.8693 14.723C83.0226 14.8303 83.2066 14.9492 83.4213 15.0795C83.6359 15.2022 83.8966 15.3172 84.2033 15.4245C84.5099 15.5242 84.8933 15.574 85.3533 15.574C85.7366 15.574 86.0701 15.528 86.3538 15.436C86.6374 15.3363 86.8713 15.206 87.0553 15.045C87.2469 14.8763 87.3888 14.6847 87.4808 14.47C87.5728 14.2553 87.6188 14.0292 87.6188 13.7915C87.6188 13.4848 87.5306 13.2318 87.3543 13.0325C87.1856 12.8255 86.9594 12.6492 86.6758 12.5035C86.3998 12.3578 86.0816 12.2313 85.7213 12.124C85.3609 12.0167 84.9929 11.9017 84.6173 11.779C84.2416 11.6563 83.8736 11.5145 83.5133 11.3535C83.1529 11.1925 82.8309 10.9893 82.5473 10.744C82.2713 10.4987 82.0451 10.1997 81.8688 9.847C81.7001 9.49433 81.6158 9.065 81.6158 8.559C81.6158 8.10667 81.7078 7.6735 81.8918 7.2595C82.0834 6.8455 82.3556 6.48133 82.7083 6.167C83.0686 5.85267 83.5094 5.6035 84.0308 5.4195C84.5598 5.22783 85.1616 5.132 85.8363 5.132C86.6106 5.132 87.3083 5.25467 87.9293 5.5C88.5579 5.74533 89.0946 6.08267 89.5393 6.512L89.0448 7.3285Z" fill="white"/>
</svg>
