<svg width="30" height="30" viewBox="0 0 30 30" fill="none" xmlns="http://www.w3.org/2000/svg">
<path d="M1.58203 0L4.17572 27.041L15.1023 30L25.8744 27.041L28.4681 0H1.58203Z" fill="#FD982C"/>
<path d="M15.1025 0V30L25.8746 27.041L28.4683 0H15.1025Z" fill="#FA502E"/>
<path d="M23.096 9.33859L11.6199 9.33836L11.8119 11.4377H23.0415L22.134 23.1676L15.0927 25.2157L7.535 22.8651V18.1082H12.2298V19.525L15.0936 20.4098L17.807 19.5243L18.0045 16.0121H7.60779L6.43408 4.82275H23.096V9.33859Z" fill="white"/>
<path d="M15.1025 4.82275H23.0962V9.33859H15.1025V4.82275Z" fill="#DEECF1"/>
<path d="M18.0048 16.0121L17.8072 19.5242L15.1025 20.407V25.2129L22.1342 23.1676L23.0418 11.4376H15.1025V16.0121H18.0048Z" fill="#DEECF1"/>
</svg>
