<svg width="30" height="30" viewBox="0 0 30 30" fill="none" xmlns="http://www.w3.org/2000/svg">
<path d="M22.9688 28.5938H7.03125C6.28533 28.5938 5.56996 28.2974 5.04251 27.77C4.51507 27.2425 4.21875 26.5272 4.21875 25.7812V4.21875C4.21875 3.47283 4.51507 2.75746 5.04251 2.23001C5.56996 1.70257 6.28533 1.40625 7.03125 1.40625H20.1562L25.7812 7.03125V25.7812C25.7812 26.5272 25.4849 27.2425 24.9575 27.77C24.43 28.2974 23.7147 28.5938 22.9688 28.5938Z" fill="#CFD2FC"/>
<path d="M4.21875 21.0938H25.7812V25.7812C25.7812 26.5272 25.4849 27.2425 24.9575 27.77C24.43 28.2974 23.7147 28.5938 22.9688 28.5938H7.03125C6.28533 28.5938 5.56996 28.2974 5.04251 27.77C4.51507 27.2425 4.21875 26.5272 4.21875 25.7812V21.0938Z" fill="#5153FF"/>
<path d="M25.7812 7.03125H22.9688C22.2228 7.03125 21.5075 6.73493 20.98 6.20749C20.4526 5.68004 20.1563 4.96467 20.1562 4.21875V1.40625L25.7812 7.03125Z" fill="#8690FA"/>
<path d="M11.25 15.9375C11.1885 15.9376 11.1275 15.9255 11.0706 15.902C11.0137 15.8784 10.962 15.8438 10.9186 15.8002L8.10605 12.9877C8.06252 12.9442 8.02799 12.8925 8.00443 12.8357C7.98088 12.7788 7.96875 12.7178 7.96875 12.6563C7.96875 12.5947 7.98088 12.5338 8.00443 12.4769C8.02799 12.42 8.06252 12.3683 8.10605 12.3248L10.9186 9.5123C11.0065 9.42439 11.1257 9.375 11.25 9.375C11.3743 9.375 11.4936 9.42439 11.5815 9.5123C11.6694 9.60021 11.7188 9.71944 11.7188 9.84376C11.7188 9.96809 11.6694 10.0873 11.5815 10.1752L9.10039 12.6563L11.5815 15.1373C11.647 15.2029 11.6917 15.2864 11.7098 15.3773C11.7279 15.4683 11.7186 15.5625 11.6831 15.6482C11.6476 15.7338 11.5875 15.807 11.5105 15.8585C11.4334 15.91 11.3427 15.9375 11.25 15.9375Z" fill="#8690FA"/>
<path d="M18.75 15.9375C18.6573 15.9375 18.5667 15.91 18.4896 15.8585C18.4125 15.807 18.3524 15.7338 18.3169 15.6481C18.2815 15.5625 18.2722 15.4682 18.2903 15.3773C18.3083 15.2864 18.353 15.2029 18.4186 15.1373L20.8996 12.6563L18.4186 10.1752C18.3306 10.0873 18.2813 9.96809 18.2813 9.84376C18.2813 9.71944 18.3306 9.60021 18.4186 9.5123C18.5065 9.42439 18.6257 9.375 18.75 9.375C18.8743 9.375 18.9936 9.42439 19.0815 9.5123L21.894 12.3248C21.9375 12.3683 21.972 12.42 21.9956 12.4769C22.0191 12.5337 22.0313 12.5947 22.0313 12.6563C22.0313 12.7178 22.0191 12.7788 21.9956 12.8357C21.972 12.8925 21.9375 12.9442 21.894 12.9877L19.0815 15.8002C19.038 15.8438 18.9863 15.8784 18.9294 15.902C18.8726 15.9255 18.8116 15.9376 18.75 15.9375Z" fill="#8690FA"/>
<path d="M15 16.875C15.2589 16.875 15.4688 16.6651 15.4688 16.4062C15.4688 16.1474 15.2589 15.9375 15 15.9375C14.7411 15.9375 14.5312 16.1474 14.5312 16.4062C14.5312 16.6651 14.7411 16.875 15 16.875Z" fill="#8690FA"/>
<path d="M15 15C14.8757 15 14.7565 14.9506 14.6685 14.8627C14.5806 14.7748 14.5313 14.6556 14.5313 14.5313V12.6563C14.5313 12.5319 14.5806 12.4127 14.6685 12.3248C14.7565 12.2369 14.8757 12.1875 15 12.1875C15.2781 12.1875 15.55 12.105 15.7813 11.9505C16.0125 11.796 16.1928 11.5764 16.2992 11.3194C16.4056 11.0625 16.4335 10.7797 16.3792 10.5069C16.325 10.2341 16.191 9.98356 15.9944 9.78689C15.7977 9.59022 15.5471 9.45629 15.2743 9.40203C15.0016 9.34777 14.7188 9.37562 14.4619 9.48206C14.2049 9.58849 13.9853 9.76873 13.8307 9.99999C13.6762 10.2312 13.5938 10.5031 13.5938 10.7813C13.5938 10.9056 13.5444 11.0248 13.4565 11.1127C13.3686 11.2006 13.2493 11.25 13.125 11.25C13.0007 11.25 12.8815 11.2006 12.7935 11.1127C12.7056 11.0248 12.6562 10.9056 12.6562 10.7813C12.6563 10.3378 12.7822 9.90348 13.0193 9.52872C13.2564 9.15397 13.5949 8.85416 13.9956 8.66412C14.3963 8.47408 14.8426 8.4016 15.2828 8.45512C15.723 8.50863 16.139 8.68593 16.4825 8.96643C16.826 9.24693 17.0828 9.61911 17.2232 10.0398C17.3636 10.4604 17.3818 10.9122 17.2756 11.3428C17.1695 11.7734 16.9433 12.165 16.6235 12.4721C16.3037 12.7793 15.9032 12.9894 15.4688 13.0781V14.5313C15.4688 14.6556 15.4194 14.7748 15.3315 14.8627C15.2436 14.9506 15.1243 15 15 15Z" fill="#8690FA"/>
<path d="M18.75 22.5H17.8125C17.6882 22.5 17.569 22.5494 17.481 22.6373C17.3931 22.7252 17.3438 22.8444 17.3438 22.9688V26.7188C17.3438 26.8431 17.3931 26.9623 17.481 27.0502C17.569 27.1381 17.6882 27.1875 17.8125 27.1875C17.9368 27.1875 18.056 27.1381 18.144 27.0502C18.2319 26.9623 18.2812 26.8431 18.2812 26.7188V25.3125H18.75C19.123 25.3125 19.4806 25.1643 19.7444 24.9006C20.0081 24.6369 20.1562 24.2792 20.1562 23.9062C20.1562 23.5333 20.0081 23.1756 19.7444 22.9119C19.4806 22.6482 19.123 22.5 18.75 22.5ZM18.75 24.375H18.2812V23.4375H18.75C18.8743 23.4375 18.9935 23.4869 19.0815 23.5748C19.1694 23.6627 19.2188 23.7819 19.2188 23.9062C19.2188 24.0306 19.1694 24.1498 19.0815 24.2377C18.9935 24.3256 18.8743 24.375 18.75 24.375Z" fill="white"/>
<path d="M11.25 22.5H10.3125C10.1882 22.5 10.069 22.5494 9.98104 22.6373C9.89314 22.7252 9.84375 22.8444 9.84375 22.9688V26.7188C9.84375 26.8431 9.89314 26.9623 9.98104 27.0502C10.069 27.1381 10.1882 27.1875 10.3125 27.1875C10.4368 27.1875 10.556 27.1381 10.644 27.0502C10.7319 26.9623 10.7812 26.8431 10.7812 26.7188V25.3125H11.25C11.623 25.3125 11.9806 25.1643 12.2444 24.9006C12.5081 24.6369 12.6562 24.2792 12.6562 23.9062C12.6562 23.5333 12.5081 23.1756 12.2444 22.9119C11.9806 22.6482 11.623 22.5 11.25 22.5ZM11.25 24.375H10.7812V23.4375H11.25C11.3743 23.4375 11.4935 23.4869 11.5815 23.5748C11.6694 23.6627 11.7188 23.7819 11.7188 23.9062C11.7188 24.0306 11.6694 24.1498 11.5815 24.2377C11.4935 24.3256 11.3743 24.375 11.25 24.375Z" fill="white"/>
<path d="M15.9375 22.5C15.8132 22.5 15.694 22.5494 15.606 22.6373C15.5181 22.7252 15.4688 22.8444 15.4688 22.9688V24.375H14.5312V22.9688C14.5312 22.8444 14.4819 22.7252 14.394 22.6373C14.306 22.5494 14.1868 22.5 14.0625 22.5C13.9382 22.5 13.819 22.5494 13.731 22.6373C13.6431 22.7252 13.5938 22.8444 13.5938 22.9688V26.7188C13.5938 26.8431 13.6431 26.9623 13.731 27.0502C13.819 27.1381 13.9382 27.1875 14.0625 27.1875C14.1868 27.1875 14.306 27.1381 14.394 27.0502C14.4819 26.9623 14.5312 26.8431 14.5312 26.7188V25.3125H15.4688V26.7188C15.4688 26.8431 15.5181 26.9623 15.606 27.0502C15.694 27.1381 15.8132 27.1875 15.9375 27.1875C16.0618 27.1875 16.181 27.1381 16.269 27.0502C16.3569 26.9623 16.4062 26.8431 16.4062 26.7188V22.9688C16.4062 22.8444 16.3569 22.7252 16.269 22.6373C16.181 22.5494 16.0618 22.5 15.9375 22.5Z" fill="white"/>
</svg>
