<svg width="30" height="30" viewBox="0 0 30 30" fill="none" xmlns="http://www.w3.org/2000/svg">
<g clip-path="url(#clip0)">
<path d="M30 15C30 16.522 29.7735 17.9914 29.3517 19.3757C29.3517 19.3763 29.3517 19.3763 29.3511 19.377C28.8643 20.9743 28.1193 22.4584 27.1629 23.7802V23.7808C25.7994 25.6659 24.008 27.2216 21.9319 28.3053C21.3202 28.6249 20.6841 28.9035 20.0272 29.1367C19.4945 29.3265 18.9478 29.4863 18.3888 29.6155H18.3882C17.299 29.8672 16.1657 30 15 30C12.5663 30 10.2686 29.4208 8.23652 28.3922C6.33674 27.431 4.66898 26.0773 3.34102 24.4378C2.13369 22.9488 1.20674 21.2241 0.638555 19.3433C0.223477 17.9688 0 16.5104 0 15C0 6.71572 6.71572 0 15 0C23.2843 0 30 6.71572 30 15Z" fill="#264D6F"/>
<path d="M21.8041 6.54974V13.9494C21.8041 15.6912 20.3923 17.1031 18.6504 17.1031H11.0702C8.87898 17.1031 7.10289 18.8798 7.10289 21.071V24.7053H4.62449C4.17572 24.7053 3.74471 24.6165 3.34123 24.4378C2.13391 22.9488 1.20695 21.2241 0.63877 19.3433C0.594062 18.8792 0.570801 18.3839 0.570801 17.8573C0.570801 13.26 2.38609 11.0094 4.62449 11.0094H15.0418V9.94162H8.10877V6.5498C8.10877 4.82755 11.1749 3.43103 14.9567 3.43103C18.7386 3.43103 21.8041 4.82749 21.8041 6.54974Z" fill="#3876AC"/>
<path d="M11.0936 8.09336C11.7896 8.09336 12.3537 7.52919 12.3537 6.83324C12.3537 6.1373 11.7896 5.57312 11.0936 5.57312C10.3977 5.57312 9.8335 6.1373 9.8335 6.83324C9.8335 7.52919 10.3977 8.09336 11.0936 8.09336Z" fill="#F2F2F2"/>
<path d="M29.4701 17.4624C29.4701 18.153 29.4291 18.791 29.3519 19.3757C29.3519 19.3763 29.3519 19.3763 29.3513 19.3769C28.8646 20.9742 28.1195 22.4584 27.1631 23.7802V23.7808C26.6341 24.134 26.0421 24.3098 25.417 24.3098H14.9997V25.3781H21.9322V28.3053C21.3205 28.6248 20.6844 28.9035 20.0275 29.1367C19.4948 29.3265 18.948 29.4863 18.3891 29.6155H18.3885C17.2993 29.8671 16.166 30 15.0003 30C12.5666 30 10.2688 29.4208 8.23682 28.3922V21.3704C8.23682 19.6286 9.64928 18.2161 11.3911 18.2161H18.9713C21.1625 18.2161 22.9386 16.44 22.9386 14.2488V10.6145H25.417C27.6554 10.6144 29.4701 12.8185 29.4701 17.4624Z" fill="#F7CD00"/>
<path d="M20.2079 28.4864C20.2079 28.7246 20.1418 28.9475 20.0273 29.1367C19.4947 29.3264 18.9479 29.4862 18.389 29.6154H18.3884C17.9733 29.4097 17.688 28.9811 17.688 28.4864C17.688 27.7903 18.2519 27.2264 18.948 27.2264C19.644 27.2264 20.2079 27.7903 20.2079 28.4864Z" fill="#F2F2F2"/>
</g>
<defs>
<clipPath id="clip0">
<rect width="30" height="30" fill="white"/>
</clipPath>
</defs>
</svg>
