<svg width="287" height="249" viewBox="0 0 287 249" fill="none" xmlns="http://www.w3.org/2000/svg">
<path d="M10.58 17.177C10.5033 17.3073 10.4228 17.4032 10.3385 17.4645C10.2542 17.5258 10.1468 17.5565 10.0165 17.5565C9.8785 17.5565 9.72133 17.4952 9.545 17.3725C9.36867 17.2422 9.14633 17.1003 8.878 16.947C8.61733 16.786 8.303 16.6442 7.935 16.5215C7.567 16.3912 7.12617 16.326 6.6125 16.326C6.1295 16.326 5.704 16.3912 5.336 16.5215C4.97567 16.6442 4.67283 16.8167 4.4275 17.039C4.18217 17.2537 3.99433 17.5105 3.864 17.8095C3.74133 18.1008 3.68 18.419 3.68 18.764C3.68 19.2087 3.79117 19.5767 4.0135 19.868C4.2435 20.1593 4.5425 20.4085 4.9105 20.6155C5.2785 20.8225 5.69633 21.0027 6.164 21.156C6.63167 21.3093 7.11083 21.4703 7.6015 21.639C8.09217 21.8 8.57133 21.9878 9.039 22.2025C9.50667 22.4172 9.9245 22.6893 10.2925 23.019C10.6605 23.341 10.9557 23.7397 11.178 24.215C11.408 24.6827 11.523 25.2577 11.523 25.94C11.523 26.6683 11.3965 27.3507 11.1435 27.987C10.8982 28.6233 10.5378 29.1792 10.0625 29.6545C9.58717 30.1298 9.00067 30.5055 8.303 30.7815C7.613 31.0498 6.82717 31.184 5.9455 31.184C5.4165 31.184 4.90283 31.1303 4.4045 31.023C3.90617 30.9233 3.43467 30.7815 2.99 30.5975C2.54533 30.4058 2.1275 30.1797 1.7365 29.919C1.35317 29.6507 1.00817 29.3517 0.7015 29.022L1.403 27.849C1.472 27.757 1.5525 27.6803 1.6445 27.619C1.74417 27.5577 1.85533 27.527 1.978 27.527C2.139 27.527 2.323 27.6113 2.53 27.78C2.74467 27.9487 3.00533 28.1365 3.312 28.3435C3.62633 28.5428 3.99817 28.7268 4.4275 28.8955C4.8645 29.0642 5.3935 29.1485 6.0145 29.1485C6.5205 29.1485 6.97283 29.0833 7.3715 28.953C7.77017 28.815 8.10367 28.6233 8.372 28.378C8.648 28.125 8.85883 27.8222 9.0045 27.4695C9.15017 27.1168 9.223 26.7258 9.223 26.2965C9.223 25.8135 9.11183 25.4187 8.8895 25.112C8.66717 24.8053 8.372 24.5485 8.004 24.3415C7.636 24.1345 7.21817 23.9582 6.7505 23.8125C6.28283 23.6668 5.80367 23.5173 5.313 23.364C4.82233 23.203 4.34317 23.019 3.8755 22.812C3.40783 22.605 2.99 22.3367 2.622 22.007C2.254 21.6697 1.95883 21.2518 1.7365 20.7535C1.51417 20.2475 1.403 19.6265 1.403 18.8905C1.403 18.3002 1.518 17.729 1.748 17.177C1.978 16.625 2.3115 16.1382 2.7485 15.7165C3.19317 15.2872 3.7375 14.946 4.3815 14.693C5.0255 14.4323 5.7615 14.302 6.5895 14.302C7.51717 14.302 8.36817 14.4515 9.1425 14.7505C9.9245 15.0418 10.603 15.4635 11.178 16.0155L10.58 17.177Z" fill="black"/>
<path d="M17.7087 14.026V23.9505H18.2377C18.3987 23.9505 18.5329 23.9275 18.6402 23.8815C18.7476 23.8355 18.8587 23.7435 18.9737 23.6055L22.4697 19.753C22.5771 19.6073 22.6959 19.5 22.8262 19.431C22.9566 19.3543 23.1214 19.316 23.3207 19.316H25.3677L21.2392 23.8355C21.0169 24.1192 20.7792 24.3377 20.5262 24.491C20.6719 24.5907 20.7984 24.7057 20.9057 24.836C21.0207 24.9663 21.1319 25.1082 21.2392 25.2615L25.6322 31H23.6197C23.4357 31 23.2747 30.9693 23.1367 30.908C23.0064 30.8467 22.8876 30.7355 22.7802 30.5745L19.1692 25.8825C19.0542 25.7062 18.9392 25.595 18.8242 25.549C18.7092 25.4953 18.5367 25.4685 18.3067 25.4685H17.7087V31H15.4662V14.026H17.7087ZM31.0292 19.316V31H28.7867V19.316H31.0292ZM31.4547 15.705C31.4547 15.912 31.4125 16.1113 31.3282 16.303C31.2438 16.487 31.1288 16.6518 30.9832 16.7975C30.8452 16.9355 30.6803 17.0467 30.4887 17.131C30.297 17.2077 30.0977 17.246 29.8907 17.246C29.6837 17.246 29.4882 17.2077 29.3042 17.131C29.1202 17.0467 28.9553 16.9355 28.8097 16.7975C28.6717 16.6518 28.5605 16.487 28.4762 16.303C28.3995 16.1113 28.3612 15.912 28.3612 15.705C28.3612 15.4903 28.3995 15.291 28.4762 15.107C28.5605 14.9153 28.6717 14.7505 28.8097 14.6125C28.9553 14.4668 29.1202 14.3557 29.3042 14.279C29.4882 14.1947 29.6837 14.1525 29.8907 14.1525C30.0977 14.1525 30.297 14.1947 30.4887 14.279C30.6803 14.3557 30.8452 14.4668 30.9832 14.6125C31.1288 14.7505 31.2438 14.9153 31.3282 15.107C31.4125 15.291 31.4547 15.4903 31.4547 15.705ZM37.9559 14.026V31H35.7019V14.026H37.9559ZM44.8389 14.026V31H42.5849V14.026H44.8389ZM58.8617 28.125C59.2297 28.608 59.6245 28.9453 60.0462 29.137C60.4755 29.3287 60.9547 29.4245 61.4837 29.4245C62.511 29.4245 63.3045 29.0565 63.8642 28.3205C64.4315 27.5768 64.7152 26.4958 64.7152 25.0775C64.7152 24.3338 64.65 23.7013 64.5197 23.18C64.397 22.651 64.213 22.2217 63.9677 21.892C63.73 21.5547 63.4348 21.3093 63.0822 21.156C62.7295 20.995 62.3308 20.9145 61.8862 20.9145C61.2345 20.9145 60.6672 21.0602 60.1842 21.3515C59.7088 21.6428 59.268 22.0568 58.8617 22.5935V28.125ZM58.7467 21.064C58.992 20.7727 59.2527 20.5082 59.5287 20.2705C59.8123 20.0252 60.1152 19.8182 60.4372 19.6495C60.7592 19.4732 61.1003 19.339 61.4607 19.247C61.8287 19.1473 62.2197 19.0975 62.6337 19.0975C63.3007 19.0975 63.9025 19.2278 64.4392 19.4885C64.9835 19.7492 65.4473 20.1325 65.8307 20.6385C66.214 21.1445 66.5092 21.7693 66.7162 22.513C66.9308 23.2567 67.0382 24.1115 67.0382 25.0775C67.0382 25.9438 66.9193 26.7488 66.6817 27.4925C66.4517 28.2285 66.1182 28.8687 65.6812 29.413C65.2518 29.9573 64.7228 30.3867 64.0942 30.701C63.4732 31.0077 62.7717 31.161 61.9897 31.161C61.292 31.161 60.694 31.046 60.1957 30.816C59.6973 30.586 59.2527 30.264 58.8617 29.85V34.9215H56.6192V19.316H57.9647C58.279 19.316 58.4745 19.4655 58.5512 19.7645L58.7467 21.064ZM75.9162 19.132C76.7748 19.132 77.5492 19.2738 78.2392 19.5575C78.9368 19.8335 79.5272 20.236 80.0102 20.765C80.5008 21.2863 80.8765 21.9188 81.1372 22.6625C81.3978 23.3985 81.5282 24.2265 81.5282 25.1465C81.5282 26.0665 81.3978 26.8983 81.1372 27.642C80.8765 28.3857 80.5008 29.0182 80.0102 29.5395C79.5272 30.0608 78.9368 30.4633 78.2392 30.747C77.5492 31.023 76.7748 31.161 75.9162 31.161C75.0498 31.161 74.2678 31.023 73.5702 30.747C72.8802 30.4633 72.2898 30.0608 71.7992 29.5395C71.3085 29.0182 70.929 28.3857 70.6607 27.642C70.4 26.8983 70.2697 26.0665 70.2697 25.1465C70.2697 24.2265 70.4 23.3985 70.6607 22.6625C70.929 21.9188 71.3085 21.2863 71.7992 20.765C72.2898 20.236 72.8802 19.8335 73.5702 19.5575C74.2678 19.2738 75.0498 19.132 75.9162 19.132ZM75.9162 29.413C77.0202 29.413 77.8443 29.0412 78.3887 28.2975C78.933 27.5538 79.2052 26.5073 79.2052 25.158C79.2052 23.8087 78.933 22.7622 78.3887 22.0185C77.8443 21.2672 77.0202 20.8915 75.9162 20.8915C74.7968 20.8915 73.9612 21.2672 73.4092 22.0185C72.8648 22.7622 72.5927 23.8087 72.5927 25.158C72.5927 26.5073 72.8648 27.5538 73.4092 28.2975C73.9612 29.0412 74.7968 29.413 75.9162 29.413ZM87.7574 19.316V31H85.5149V19.316H87.7574ZM88.1829 15.705C88.1829 15.912 88.1407 16.1113 88.0564 16.303C87.9721 16.487 87.8571 16.6518 87.7114 16.7975C87.5734 16.9355 87.4086 17.0467 87.2169 17.131C87.0252 17.2077 86.8259 17.246 86.6189 17.246C86.4119 17.246 86.2164 17.2077 86.0324 17.131C85.8484 17.0467 85.6836 16.9355 85.5379 16.7975C85.3999 16.6518 85.2887 16.487 85.2044 16.303C85.1277 16.1113 85.0894 15.912 85.0894 15.705C85.0894 15.4903 85.1277 15.291 85.2044 15.107C85.2887 14.9153 85.3999 14.7505 85.5379 14.6125C85.6836 14.4668 85.8484 14.3557 86.0324 14.279C86.2164 14.1947 86.4119 14.1525 86.6189 14.1525C86.8259 14.1525 87.0252 14.1947 87.2169 14.279C87.4086 14.3557 87.5734 14.4668 87.7114 14.6125C87.8571 14.7505 87.9721 14.9153 88.0564 15.107C88.1407 15.291 88.1829 15.4903 88.1829 15.705ZM94.4887 20.9375C94.7417 20.6692 95.0062 20.4238 95.2822 20.2015C95.5582 19.9792 95.8495 19.7913 96.1562 19.638C96.4705 19.477 96.804 19.3543 97.1567 19.27C97.517 19.178 97.9003 19.132 98.3067 19.132C98.9507 19.132 99.5142 19.2393 99.9972 19.454C100.488 19.6687 100.898 19.9715 101.228 20.3625C101.557 20.7458 101.807 21.2097 101.975 21.754C102.144 22.2983 102.228 22.9002 102.228 23.5595V31H99.9742V23.5595C99.9742 22.7238 99.7825 22.076 99.3992 21.616C99.0158 21.1483 98.4293 20.9145 97.6397 20.9145C97.0647 20.9145 96.5242 21.0525 96.0182 21.3285C95.5198 21.5968 95.056 21.9648 94.6267 22.4325V31H92.3842V19.316H93.7297C94.044 19.316 94.2395 19.4655 94.3162 19.7645L94.4887 20.9375ZM110.134 31.184C109.191 31.184 108.463 30.9195 107.949 30.3905C107.443 29.8615 107.19 29.1063 107.19 28.125V21.133H105.833C105.703 21.133 105.592 21.0947 105.5 21.018C105.415 20.9337 105.373 20.811 105.373 20.65V19.7415L107.271 19.477L107.777 15.9925C107.807 15.8622 107.865 15.7625 107.949 15.6935C108.041 15.6168 108.156 15.5785 108.294 15.5785H109.433V19.5H112.745V21.133H109.433V27.9755C109.433 28.4355 109.544 28.7805 109.766 29.0105C109.996 29.2328 110.287 29.344 110.64 29.344C110.847 29.344 111.023 29.3172 111.169 29.2635C111.322 29.2098 111.453 29.1523 111.56 29.091C111.667 29.022 111.759 28.9607 111.836 28.907C111.913 28.8533 111.982 28.8265 112.043 28.8265C112.12 28.8265 112.177 28.8457 112.216 28.884C112.262 28.9147 112.308 28.9683 112.354 29.045L113.021 30.126C112.653 30.4633 112.216 30.724 111.71 30.908C111.204 31.092 110.678 31.184 110.134 31.184ZM123.079 21.3285C123.017 21.4282 122.952 21.501 122.883 21.547C122.814 21.5853 122.726 21.6045 122.619 21.6045C122.496 21.6045 122.358 21.5623 122.205 21.478C122.059 21.3937 121.879 21.3017 121.664 21.202C121.457 21.1023 121.212 21.0103 120.928 20.926C120.644 20.8417 120.307 20.7995 119.916 20.7995C119.594 20.7995 119.299 20.8417 119.031 20.926C118.77 21.0027 118.548 21.1138 118.364 21.2595C118.18 21.3975 118.038 21.5662 117.938 21.7655C117.838 21.9572 117.789 22.1642 117.789 22.3865C117.789 22.6778 117.873 22.9193 118.042 23.111C118.218 23.3027 118.444 23.4675 118.72 23.6055C119.004 23.7435 119.322 23.87 119.675 23.985C120.035 24.0923 120.399 24.2073 120.767 24.33C121.143 24.4527 121.507 24.5945 121.86 24.7555C122.22 24.9088 122.538 25.1043 122.814 25.342C123.098 25.572 123.324 25.8518 123.493 26.1815C123.669 26.5112 123.757 26.9137 123.757 27.389C123.757 27.9333 123.657 28.4393 123.458 28.907C123.266 29.367 122.979 29.7657 122.596 30.103C122.22 30.4403 121.752 30.7048 121.193 30.8965C120.633 31.0882 119.993 31.184 119.272 31.184C118.467 31.184 117.723 31.0498 117.041 30.7815C116.359 30.5132 115.788 30.172 115.328 29.758L115.857 28.8955C115.918 28.7882 115.995 28.7077 116.087 28.654C116.179 28.5927 116.301 28.562 116.455 28.562C116.6 28.562 116.75 28.6157 116.903 28.723C117.056 28.8303 117.24 28.9492 117.455 29.0795C117.67 29.2022 117.93 29.3172 118.237 29.4245C118.544 29.5242 118.927 29.574 119.387 29.574C119.77 29.574 120.104 29.528 120.388 29.436C120.671 29.3363 120.905 29.206 121.089 29.045C121.281 28.8763 121.423 28.6847 121.515 28.47C121.607 28.2553 121.653 28.0292 121.653 27.7915C121.653 27.4848 121.564 27.2318 121.388 27.0325C121.219 26.8255 120.993 26.6492 120.71 26.5035C120.434 26.3578 120.115 26.2313 119.755 26.124C119.395 26.0167 119.027 25.9017 118.651 25.779C118.275 25.6563 117.907 25.5145 117.547 25.3535C117.187 25.1925 116.865 24.9893 116.581 24.744C116.305 24.4987 116.079 24.1997 115.903 23.847C115.734 23.4943 115.65 23.065 115.65 22.559C115.65 22.1067 115.742 21.6735 115.926 21.2595C116.117 20.8455 116.389 20.4813 116.742 20.167C117.102 19.8527 117.543 19.6035 118.065 19.4195C118.594 19.2278 119.195 19.132 119.87 19.132C120.644 19.132 121.342 19.2547 121.963 19.5C122.592 19.7453 123.128 20.0827 123.573 20.512L123.079 21.3285Z" fill="white"/>
<path d="M13.5 57V226.5" stroke="white"/>
<path d="M0 210.5H270" stroke="white"/>
<path d="M26.3311 232.305H29.1471L27.7685 228.463L26.3311 232.305ZM29.4111 235.884L30.2325 235.796C30.2716 235.796 30.3205 235.776 30.3791 235.737V235.532L29.4111 232.921H26.0965L25.1285 235.532V235.62C25.1285 235.659 25.1578 235.698 25.2165 235.737V235.767C25.2165 235.786 25.236 235.796 25.2751 235.796H25.3045L26.1258 235.884V236.5H23.2805V235.884L24.1018 235.737L27.4165 226.615H28.5311L31.9045 235.473C31.9045 235.532 31.9045 235.581 31.9045 235.62C31.924 235.64 31.9338 235.659 31.9338 235.679C31.9925 235.718 32.0316 235.737 32.0511 235.737C32.0902 235.737 32.1196 235.757 32.1391 235.796L32.7845 235.884V236.5H29.4111V235.884ZM38.6858 230.076L38.4511 229.988C38.06 229.988 37.7471 230.086 37.5125 230.281C37.2973 230.36 37.092 230.536 36.8965 230.809C36.6618 231.22 36.5347 231.523 36.5151 231.719C36.4369 232.149 36.3978 232.55 36.3978 232.921C36.3978 233.176 36.4271 233.537 36.4858 234.007C36.5836 234.202 36.6618 234.368 36.7205 234.505C36.9942 235.131 37.4733 235.542 38.1578 235.737C38.3533 235.776 38.5685 235.796 38.8031 235.796C39.0573 235.796 39.3018 235.757 39.5365 235.679C39.7907 235.6 39.9862 235.522 40.1231 235.444C40.2796 235.346 40.436 235.258 40.5925 235.18V236.06C40.5338 236.08 40.4556 236.109 40.3578 236.148C40.26 236.168 40.172 236.207 40.0938 236.265C40.0156 236.324 39.9178 236.373 39.8005 236.412C39.6831 236.432 39.5853 236.461 39.5071 236.5C39.3898 236.539 39.1747 236.608 38.8618 236.705L38.1578 236.764C37.532 236.764 36.8965 236.549 36.2511 236.119C36.0751 236.001 35.9285 235.855 35.8111 235.679C35.1658 235.033 34.8431 234.183 34.8431 233.127C34.8431 232.012 35.2049 231.093 35.9285 230.369C36.2218 230.076 36.5836 229.841 37.0138 229.665C37.4636 229.548 37.8449 229.489 38.1578 229.489H38.8325C39.0867 229.489 39.3116 229.538 39.5071 229.636C39.7027 229.714 39.8591 229.763 39.9765 229.783C40.1329 229.9 40.2698 230.066 40.3871 230.281C40.524 230.418 40.5925 230.624 40.5925 230.897L40.5338 231.191C40.4947 231.269 40.4556 231.328 40.4165 231.367C40.3969 231.406 40.3676 231.464 40.3285 231.543C40.2502 231.601 40.1427 231.631 40.0058 231.631C39.9862 231.689 39.9471 231.719 39.8885 231.719C39.8298 231.719 39.7711 231.719 39.7125 231.719L39.3018 231.631C39.1845 231.592 39.0769 231.523 38.9791 231.425V230.281C38.9596 230.203 38.8618 230.135 38.6858 230.076ZM47.02 232.657C46.3551 232.833 45.8662 233.009 45.5533 233.185C45.3187 233.244 45.1329 233.322 44.996 233.42C44.8591 233.498 44.7418 233.567 44.644 233.625C44.3116 234.036 44.1453 234.378 44.1453 234.652C44.1453 234.73 44.1747 234.848 44.2333 235.004C44.3116 235.141 44.3507 235.248 44.3507 235.327C44.3702 235.385 44.3996 235.434 44.4387 235.473C44.5169 235.512 44.5756 235.561 44.6147 235.62C44.6733 235.659 44.732 235.698 44.7907 235.737C44.8689 235.776 44.9569 235.796 45.0547 235.796C45.2307 235.796 45.3871 235.796 45.524 235.796C45.7196 235.796 45.8956 235.757 46.052 235.679C46.2085 235.581 46.3453 235.512 46.4627 235.473C46.58 235.434 46.6778 235.395 46.756 235.356C46.8342 235.297 46.9222 235.239 47.02 235.18V232.657ZM48.2813 230.692L48.3693 231.601V235.532C48.3693 235.571 48.3889 235.64 48.428 235.737C48.4867 235.835 48.5747 235.894 48.692 235.913H49.3667V236.5H47.196L47.02 235.679C46.7462 235.894 46.4822 236.06 46.228 236.177C46.1889 236.236 46.1302 236.275 46.052 236.295C45.9933 236.314 45.9347 236.344 45.876 236.383C45.7391 236.461 45.6022 236.5 45.4653 236.5C45.2698 236.598 45.1231 236.647 45.0253 236.647C44.9471 236.686 44.8102 236.705 44.6147 236.705C44.4191 236.705 44.2236 236.676 44.028 236.617C43.4413 236.402 43.0698 236.04 42.9133 235.532C42.796 235.297 42.7373 235.092 42.7373 234.916V234.505C42.7373 234.427 42.7569 234.339 42.796 234.241C42.8547 234.124 42.9231 233.968 43.0013 233.772C43.1578 233.576 43.3045 233.449 43.4413 233.391C43.5587 233.312 43.676 233.234 43.7933 233.156C43.9107 233.078 44.0573 233.009 44.2333 232.951C44.4289 232.872 44.6147 232.804 44.7907 232.745C44.9862 232.667 45.1916 232.608 45.4067 232.569C45.6413 232.472 45.8858 232.393 46.14 232.335C46.3942 232.276 46.6876 232.198 47.02 232.1V231.543C47.02 231.015 46.9125 230.643 46.6973 230.428C46.404 230.213 46.1205 230.105 45.8467 230.105H45.348C45.2307 230.105 45.0547 230.135 44.82 230.193C44.7613 230.232 44.7027 230.262 44.644 230.281V231.543H43.4413L43.2653 231.425C43.2653 231.406 43.2458 231.396 43.2067 231.396C43.1871 231.396 43.1578 231.376 43.1187 231.337V231.132C43.1187 230.78 43.2067 230.526 43.3827 230.369C43.4805 230.232 43.588 230.125 43.7053 230.047C43.8227 229.968 43.9498 229.88 44.0867 229.783C44.556 229.587 44.9569 229.48 45.2893 229.46C45.6413 229.44 45.9249 229.431 46.14 229.431C46.9418 229.431 47.5285 229.616 47.9 229.988C48.0369 230.184 48.164 230.418 48.2813 230.692ZM55.5959 235.532L55.9773 235.356C56.0555 235.356 56.1142 235.346 56.1533 235.327C56.1924 235.288 56.2413 235.258 56.2999 235.239V230.311C56.2413 230.291 56.1533 230.281 56.0359 230.281C55.9968 230.203 55.8893 230.164 55.7133 230.164C55.6937 230.125 55.6546 230.105 55.5959 230.105H55.3906C55.3319 230.086 55.2733 230.076 55.2146 230.076H55.0973C54.3737 230.076 53.7968 230.35 53.3666 230.897C53.2688 231.034 53.1711 231.171 53.0733 231.308C52.9951 231.425 52.9364 231.592 52.8973 231.807C52.8582 232.002 52.8191 232.198 52.7799 232.393C52.7408 232.569 52.7213 232.765 52.7213 232.98C52.7213 233.176 52.7506 233.449 52.8093 233.801C52.8679 234.134 52.9364 234.368 53.0146 234.505C53.0928 234.642 53.1613 234.779 53.2199 234.916C53.6502 235.424 54.1586 235.679 54.7453 235.679H55.2146L55.4199 235.561C55.4786 235.542 55.5373 235.532 55.5959 235.532ZM55.3613 229.431L55.7133 229.489C55.8893 229.489 55.9968 229.509 56.0359 229.548H56.2999V226.937H55.2146V226.468L57.0333 225.94H57.6493V235.532C57.6493 235.669 57.6688 235.767 57.7079 235.825C57.7471 235.864 57.8351 235.884 57.9719 235.884L58.5293 235.913V236.5H56.2999V235.737C56.0848 235.913 55.9088 236.04 55.7719 236.119C55.7328 236.197 55.6546 236.256 55.5373 236.295C55.4395 236.314 55.3515 236.363 55.2733 236.441C55.1755 236.48 55.0777 236.51 54.9799 236.529C54.9017 236.568 54.8039 236.608 54.6866 236.647C54.5888 236.686 54.4911 236.705 54.3933 236.705H54.0706C53.5622 236.705 53.1613 236.598 52.8679 236.383C52.4377 236.226 52.0466 235.776 51.6946 235.033C51.6164 234.877 51.5577 234.681 51.5186 234.447C51.3817 234.134 51.3133 233.792 51.3133 233.42C51.3133 232.794 51.4013 232.266 51.5773 231.836C51.6359 231.562 51.7239 231.337 51.8413 231.161C51.9586 230.966 52.0857 230.77 52.2226 230.575C52.9853 229.812 53.8946 229.431 54.9506 229.431H55.3613ZM66.6603 235.796C66.3669 236.031 66.1029 236.187 65.8683 236.265C65.6336 236.344 65.4576 236.402 65.3403 236.441C65.2229 236.48 65.1154 236.51 65.0176 236.529C64.9198 236.568 64.8025 236.608 64.6656 236.647C64.5483 236.686 64.4309 236.705 64.3136 236.705H63.9029C63.4336 236.705 63.0621 236.647 62.7883 236.529C62.0452 236.216 61.5172 235.816 61.2043 235.327C61.1065 235.151 60.9794 234.887 60.8229 234.535C60.6665 234.183 60.5883 233.792 60.5883 233.361C60.5883 232.755 60.6763 232.168 60.8523 231.601C61.0478 231.171 61.2825 230.78 61.5563 230.428C61.8887 230.115 62.2505 229.861 62.6416 229.665C63.2087 229.509 63.6292 229.431 63.9029 229.431C64.3136 229.431 64.7536 229.489 65.2229 229.607C65.5163 229.822 65.7901 230.047 66.0443 230.281C66.2203 230.536 66.3865 230.839 66.5429 231.191C66.6212 231.504 66.6603 231.895 66.6603 232.364V232.804H61.9963C61.9963 233.097 62.0452 233.459 62.1429 233.889C62.2016 234.026 62.2505 234.183 62.2896 234.359C62.3483 234.515 62.4167 234.681 62.4949 234.857C62.9447 235.483 63.5901 235.796 64.4309 235.796H64.7243C64.9394 235.796 65.2425 235.708 65.6336 235.532C65.7118 235.473 65.7998 235.424 65.8976 235.385C65.9954 235.346 66.0736 235.297 66.1323 235.239C66.3865 235.121 66.5625 235.014 66.6603 234.916V235.796ZM65.2523 231.836C65.2523 231.699 65.2327 231.582 65.1936 231.484C65.1741 231.386 65.1447 231.279 65.1056 231.161C64.9883 230.809 64.8612 230.584 64.7243 230.487C64.6069 230.389 64.5092 230.32 64.4309 230.281C64.3527 230.203 64.1572 230.164 63.8443 230.164C63.2576 230.164 62.8567 230.34 62.6416 230.692C62.5438 230.77 62.4754 230.868 62.4363 230.985C62.3972 231.083 62.3287 231.2 62.2309 231.337C62.2114 231.513 62.1527 231.787 62.0549 232.159H65.2523V231.836ZM69.6162 235.796C69.6944 235.796 69.7335 235.737 69.7335 235.62V230.604H68.7069V230.105L70.5255 229.607H71.0829V230.311C71.1806 230.291 71.3469 230.184 71.5815 229.988C71.6793 229.949 71.7771 229.91 71.8749 229.871C71.9726 229.812 72.0704 229.773 72.1682 229.753C72.5397 229.538 72.8233 229.431 73.0189 229.431C73.2535 229.431 73.4491 229.431 73.6055 229.431C73.7815 229.431 73.9282 229.45 74.0455 229.489C74.0846 229.528 74.1433 229.558 74.2215 229.577C74.5149 229.714 74.7495 229.929 74.9255 230.223C74.9646 230.301 74.9842 230.369 74.9842 230.428C75.0624 230.369 75.1504 230.33 75.2482 230.311C75.3655 230.272 75.4633 230.203 75.5415 230.105C75.6393 230.066 75.7371 230.017 75.8349 229.959C75.9522 229.9 76.0597 229.841 76.1575 229.783C76.4509 229.626 76.6953 229.548 76.8909 229.548C76.9886 229.47 77.0962 229.431 77.2135 229.431H77.5362C77.8491 229.431 78.1424 229.489 78.4162 229.607C78.5531 229.704 78.6704 229.792 78.7682 229.871C78.866 229.929 78.9442 230.017 79.0029 230.135C79.0811 230.252 79.1397 230.369 79.1789 230.487C79.218 230.604 79.2669 230.741 79.3255 230.897C79.3646 231.171 79.3842 231.416 79.3842 231.631V235.532C79.3842 235.708 79.4722 235.835 79.6482 235.913H80.3522V236.5H77.1549L77.0962 236.001L77.7122 235.913C77.7904 235.913 77.8589 235.874 77.9175 235.796C77.9566 235.796 77.9762 235.776 77.9762 235.737V231.631C77.9762 231.533 77.9566 231.435 77.9175 231.337C77.9175 231.24 77.8882 231.161 77.8295 231.103C77.7904 231.024 77.7513 230.946 77.7122 230.868C77.5753 230.633 77.3504 230.516 77.0375 230.516H76.3335L75.9229 230.575C75.7664 230.653 75.6393 230.692 75.5415 230.692C75.4242 230.751 75.3069 230.819 75.1895 230.897V235.62C75.1895 235.679 75.2286 235.737 75.3069 235.796C75.3655 235.874 75.4242 235.913 75.4829 235.913H76.1282V236.5H72.9309V235.913H73.5762C73.6153 235.913 73.6642 235.884 73.7229 235.825C73.8011 235.767 73.8402 235.698 73.8402 235.62V231.572C73.8402 231.474 73.8206 231.376 73.7815 231.279C73.7815 231.103 73.7131 230.946 73.5762 230.809C73.5566 230.731 73.4589 230.663 73.2829 230.604C73.1264 230.545 72.9993 230.516 72.9015 230.516C72.6473 230.516 72.4615 230.516 72.3442 230.516C71.8749 230.516 71.5522 230.604 71.3762 230.78C71.2589 230.78 71.1611 230.819 71.0829 230.897V235.737C71.0829 235.776 71.1024 235.796 71.1415 235.796C71.2393 235.874 71.3175 235.913 71.3762 235.913L71.9922 236.001V236.5H68.7069V236.001L69.4402 235.913C69.5575 235.913 69.6162 235.874 69.6162 235.796ZM84.5965 235.532C84.5965 235.728 84.6942 235.855 84.8898 235.913H85.6818V236.5H82.2205L82.2791 235.913H83.0125C83.032 235.894 83.0516 235.884 83.0711 235.884C83.0907 235.864 83.1298 235.835 83.1885 235.796C83.2276 235.757 83.2471 235.669 83.2471 235.532V230.516H82.2791V229.988L84.0685 229.431H84.5965V235.532ZM83.2471 226.849L83.3645 226.615C83.5209 226.556 83.6285 226.497 83.6871 226.439C83.8045 226.38 83.912 226.351 84.0098 226.351C84.264 226.351 84.4791 226.439 84.6551 226.615C84.7138 226.634 84.7529 226.673 84.7725 226.732C84.792 226.771 84.8214 226.81 84.8605 226.849C84.88 226.947 84.8898 227.084 84.8898 227.26L84.8605 227.583C84.8214 227.641 84.7822 227.69 84.7431 227.729C84.704 227.768 84.6747 227.817 84.6551 227.876C84.5574 227.974 84.4694 228.023 84.3911 228.023C84.2542 228.081 84.1271 228.111 84.0098 228.111C83.8925 228.111 83.6774 228.032 83.3645 227.876L83.2471 227.583C83.208 227.504 83.1885 227.426 83.1885 227.348V227.055C83.1885 226.996 83.208 226.928 83.2471 226.849ZM91.4867 230.076L91.252 229.988C90.8609 229.988 90.548 230.086 90.3133 230.281C90.0982 230.36 89.8929 230.536 89.6973 230.809C89.4627 231.22 89.3355 231.523 89.316 231.719C89.2378 232.149 89.1987 232.55 89.1987 232.921C89.1987 233.176 89.228 233.537 89.2867 234.007C89.3844 234.202 89.4627 234.368 89.5213 234.505C89.7951 235.131 90.2742 235.542 90.9587 235.737C91.1542 235.776 91.3693 235.796 91.604 235.796C91.8582 235.796 92.1027 235.757 92.3373 235.679C92.5915 235.6 92.7871 235.522 92.924 235.444C93.0804 235.346 93.2369 235.258 93.3933 235.18V236.06C93.3347 236.08 93.2564 236.109 93.1587 236.148C93.0609 236.168 92.9729 236.207 92.8947 236.265C92.8164 236.324 92.7187 236.373 92.6013 236.412C92.484 236.432 92.3862 236.461 92.308 236.5C92.1907 236.539 91.9755 236.608 91.6627 236.705L90.9587 236.764C90.3329 236.764 89.6973 236.549 89.052 236.119C88.876 236.001 88.7293 235.855 88.612 235.679C87.9667 235.033 87.644 234.183 87.644 233.127C87.644 232.012 88.0058 231.093 88.7293 230.369C89.0227 230.076 89.3844 229.841 89.8147 229.665C90.2644 229.548 90.6458 229.489 90.9587 229.489H91.6333C91.8875 229.489 92.1124 229.538 92.308 229.636C92.5035 229.714 92.66 229.763 92.7773 229.783C92.9338 229.9 93.0707 230.066 93.188 230.281C93.3249 230.418 93.3933 230.624 93.3933 230.897L93.3347 231.191C93.2955 231.269 93.2564 231.328 93.2173 231.367C93.1978 231.406 93.1684 231.464 93.1293 231.543C93.0511 231.601 92.9435 231.631 92.8067 231.631C92.7871 231.689 92.748 231.719 92.6893 231.719C92.6307 231.719 92.572 231.719 92.5133 231.719L92.1027 231.631C91.9853 231.592 91.8778 231.523 91.78 231.425V230.281C91.7604 230.203 91.6627 230.135 91.4867 230.076Z" fill="white"/>
<path d="M132.725 235.737L132.784 235.532V227.612L129.44 236.5H128.795L125.568 227.788V235.532C125.568 235.708 125.676 235.796 125.891 235.796L126.741 235.884V236.5H123.603V235.884L124.453 235.796C124.571 235.796 124.649 235.776 124.688 235.737C124.727 235.698 124.747 235.63 124.747 235.532V227.759C124.747 227.72 124.727 227.7 124.688 227.7C124.59 227.622 124.512 227.583 124.453 227.583L123.661 227.495V226.849H126.859V227.26L129.44 234.359L132.021 227.289V226.849H135.336V227.495L134.573 227.583C134.495 227.583 134.427 227.602 134.368 227.641C134.309 227.68 134.28 227.72 134.28 227.759V235.532C134.28 235.63 134.29 235.698 134.309 235.737C134.368 235.776 134.456 235.796 134.573 235.796L135.336 235.884V236.5H131.699V235.884L132.461 235.796C132.598 235.796 132.686 235.776 132.725 235.737ZM143.579 235.796C143.286 236.031 143.022 236.187 142.787 236.265C142.552 236.344 142.376 236.402 142.259 236.441C142.142 236.48 142.034 236.51 141.936 236.529C141.838 236.568 141.721 236.608 141.584 236.647C141.467 236.686 141.35 236.705 141.232 236.705H140.822C140.352 236.705 139.981 236.647 139.707 236.529C138.964 236.216 138.436 235.816 138.123 235.327C138.025 235.151 137.898 234.887 137.742 234.535C137.585 234.183 137.507 233.792 137.507 233.361C137.507 232.755 137.595 232.168 137.771 231.601C137.966 231.171 138.201 230.78 138.475 230.428C138.807 230.115 139.169 229.861 139.56 229.665C140.127 229.509 140.548 229.431 140.822 229.431C141.232 229.431 141.672 229.489 142.142 229.607C142.435 229.822 142.709 230.047 142.963 230.281C143.139 230.536 143.305 230.839 143.462 231.191C143.54 231.504 143.579 231.895 143.579 232.364V232.804H138.915C138.915 233.097 138.964 233.459 139.062 233.889C139.12 234.026 139.169 234.183 139.208 234.359C139.267 234.515 139.335 234.681 139.414 234.857C139.863 235.483 140.509 235.796 141.35 235.796H141.643C141.858 235.796 142.161 235.708 142.552 235.532C142.63 235.473 142.718 235.424 142.816 235.385C142.914 235.346 142.992 235.297 143.051 235.239C143.305 235.121 143.481 235.014 143.579 234.916V235.796ZM142.171 231.836C142.171 231.699 142.151 231.582 142.112 231.484C142.093 231.386 142.063 231.279 142.024 231.161C141.907 230.809 141.78 230.584 141.643 230.487C141.526 230.389 141.428 230.32 141.35 230.281C141.271 230.203 141.076 230.164 140.763 230.164C140.176 230.164 139.775 230.34 139.56 230.692C139.462 230.77 139.394 230.868 139.355 230.985C139.316 231.083 139.247 231.2 139.15 231.337C139.13 231.513 139.071 231.787 138.974 232.159H142.171V231.836ZM150.876 235.796C150.935 235.796 150.964 235.737 150.964 235.62V231.836C150.964 231.054 150.729 230.633 150.26 230.575C150.065 230.536 149.869 230.516 149.673 230.516H149.175C149.038 230.516 148.901 230.545 148.764 230.604C148.627 230.643 148.5 230.682 148.383 230.721C148.265 230.76 148.138 230.819 148.001 230.897V235.62C148.001 235.679 148.031 235.737 148.089 235.796C148.168 235.835 148.207 235.864 148.207 235.884C148.226 235.904 148.256 235.913 148.295 235.913H148.911V236.5H145.625V235.913H146.359C146.437 235.913 146.525 235.874 146.623 235.796C146.642 235.757 146.652 235.698 146.652 235.62V230.604H145.625V230.105L147.444 229.607H148.001V230.311C148.217 230.154 148.432 230.047 148.647 229.988C148.745 229.929 148.842 229.88 148.94 229.841C149.057 229.802 149.165 229.753 149.263 229.695C149.38 229.636 149.478 229.597 149.556 229.577C149.654 229.558 149.742 229.528 149.82 229.489C149.918 229.45 150.025 229.431 150.143 229.431H150.348C151.013 229.431 151.512 229.626 151.844 230.017C152.177 230.408 152.343 230.946 152.343 231.631V235.532C152.343 235.728 152.392 235.835 152.489 235.855C152.529 235.874 152.568 235.894 152.607 235.913H153.252V236.5H150.055V236.001L150.7 235.913C150.759 235.913 150.817 235.874 150.876 235.796ZM159.119 235.737C159.216 235.737 159.324 235.698 159.441 235.62V236.177C159.246 236.295 159.031 236.383 158.796 236.441C158.757 236.48 158.679 236.51 158.561 236.529C158.444 236.568 158.327 236.608 158.209 236.647C158.092 236.686 157.975 236.705 157.857 236.705H157.476C156.44 236.705 155.921 236.168 155.921 235.092V230.311H155.041V229.783L155.98 229.343L156.655 227.817H157.271V229.548H159.324V230.311H157.271V234.359C157.271 234.359 157.29 234.584 157.329 235.033C157.368 235.131 157.408 235.219 157.447 235.297C157.486 235.376 157.525 235.444 157.564 235.503C157.701 235.718 157.857 235.835 158.033 235.855C158.209 235.874 158.366 235.884 158.503 235.884C158.64 235.884 158.737 235.855 158.796 235.796C158.972 235.796 159.08 235.776 159.119 235.737ZM165.837 232.657C165.173 232.833 164.684 233.009 164.371 233.185C164.136 233.244 163.95 233.322 163.813 233.42C163.677 233.498 163.559 233.567 163.461 233.625C163.129 234.036 162.963 234.378 162.963 234.652C162.963 234.73 162.992 234.848 163.051 235.004C163.129 235.141 163.168 235.248 163.168 235.327C163.188 235.385 163.217 235.434 163.256 235.473C163.334 235.512 163.393 235.561 163.432 235.62C163.491 235.659 163.549 235.698 163.608 235.737C163.686 235.776 163.774 235.796 163.872 235.796C164.048 235.796 164.205 235.796 164.341 235.796C164.537 235.796 164.713 235.757 164.869 235.679C165.026 235.581 165.163 235.512 165.28 235.473C165.397 235.434 165.495 235.395 165.573 235.356C165.652 235.297 165.74 235.239 165.837 235.18V232.657ZM167.099 230.692L167.187 231.601V235.532C167.187 235.571 167.206 235.64 167.245 235.737C167.304 235.835 167.392 235.894 167.509 235.913H168.184V236.5H166.013L165.837 235.679C165.564 235.894 165.3 236.06 165.045 236.177C165.006 236.236 164.948 236.275 164.869 236.295C164.811 236.314 164.752 236.344 164.693 236.383C164.557 236.461 164.42 236.5 164.283 236.5C164.087 236.598 163.941 236.647 163.843 236.647C163.765 236.686 163.628 236.705 163.432 236.705C163.237 236.705 163.041 236.676 162.845 236.617C162.259 236.402 161.887 236.04 161.731 235.532C161.613 235.297 161.555 235.092 161.555 234.916V234.505C161.555 234.427 161.574 234.339 161.613 234.241C161.672 234.124 161.741 233.968 161.819 233.772C161.975 233.576 162.122 233.449 162.259 233.391C162.376 233.312 162.493 233.234 162.611 233.156C162.728 233.078 162.875 233.009 163.051 232.951C163.246 232.872 163.432 232.804 163.608 232.745C163.804 232.667 164.009 232.608 164.224 232.569C164.459 232.472 164.703 232.393 164.957 232.335C165.212 232.276 165.505 232.198 165.837 232.1V231.543C165.837 231.015 165.73 230.643 165.515 230.428C165.221 230.213 164.938 230.105 164.664 230.105H164.165C164.048 230.105 163.872 230.135 163.637 230.193C163.579 230.232 163.52 230.262 163.461 230.281V231.543H162.259L162.083 231.425C162.083 231.406 162.063 231.396 162.024 231.396C162.005 231.396 161.975 231.376 161.936 231.337V231.132C161.936 230.78 162.024 230.526 162.2 230.369C162.298 230.232 162.405 230.125 162.523 230.047C162.64 229.968 162.767 229.88 162.904 229.783C163.373 229.587 163.774 229.48 164.107 229.46C164.459 229.44 164.742 229.431 164.957 229.431C165.759 229.431 166.346 229.616 166.717 229.988C166.854 230.184 166.981 230.418 167.099 230.692ZM170.013 235.913H170.776C170.835 235.913 170.903 235.874 170.981 235.796C171.06 235.698 171.099 235.64 171.099 235.62V226.996H170.013V226.468L171.773 225.94H172.448V235.62C172.448 235.737 172.487 235.806 172.565 235.825L172.712 235.913H173.533V236.5H170.013V235.913Z" fill="white"/>
<path d="M207.555 225.7C207.496 225.7 207.467 225.759 207.467 225.876V233.532C207.467 233.591 207.496 233.659 207.555 233.737C207.555 233.776 207.624 233.796 207.76 233.796L208.67 233.884V234.5H204.827V233.884L205.707 233.796H205.854C205.893 233.796 205.912 233.776 205.912 233.737C205.952 233.698 205.971 233.63 205.971 233.532V225.7C205.893 225.622 205.805 225.583 205.707 225.583L204.827 225.495V224.849H208.67V225.495L207.76 225.583C207.624 225.583 207.555 225.622 207.555 225.7ZM215.79 233.796C215.849 233.796 215.878 233.737 215.878 233.62V229.836C215.878 229.054 215.643 228.633 215.174 228.575C214.979 228.536 214.783 228.516 214.587 228.516H214.089C213.952 228.516 213.815 228.545 213.678 228.604C213.541 228.643 213.414 228.682 213.297 228.721C213.179 228.76 213.052 228.819 212.915 228.897V233.62C212.915 233.679 212.945 233.737 213.003 233.796C213.082 233.835 213.121 233.864 213.121 233.884C213.14 233.904 213.17 233.913 213.209 233.913H213.825V234.5H210.539V233.913H211.273C211.351 233.913 211.439 233.874 211.537 233.796C211.556 233.757 211.566 233.698 211.566 233.62V228.604H210.539V228.105L212.358 227.607H212.915V228.311C213.131 228.154 213.346 228.047 213.561 227.988C213.659 227.929 213.756 227.88 213.854 227.841C213.971 227.802 214.079 227.753 214.177 227.695C214.294 227.636 214.392 227.597 214.47 227.577C214.568 227.558 214.656 227.528 214.734 227.489C214.832 227.45 214.939 227.431 215.057 227.431H215.262C215.927 227.431 216.426 227.626 216.758 228.017C217.091 228.408 217.257 228.946 217.257 229.631V233.532C217.257 233.728 217.306 233.835 217.403 233.855C217.443 233.874 217.482 233.894 217.521 233.913H218.166V234.5H214.969V234.001L215.614 233.913C215.673 233.913 215.731 233.874 215.79 233.796ZM224.033 233.737C224.13 233.737 224.238 233.698 224.355 233.62V234.177C224.16 234.295 223.945 234.383 223.71 234.441C223.671 234.48 223.593 234.51 223.475 234.529C223.358 234.568 223.241 234.608 223.123 234.647C223.006 234.686 222.889 234.705 222.771 234.705H222.39C221.354 234.705 220.835 234.168 220.835 233.092V228.311H219.955V227.783L220.894 227.343L221.569 225.817H222.185V227.548H224.238V228.311H222.185V232.359C222.185 232.359 222.204 232.584 222.243 233.033C222.282 233.131 222.322 233.219 222.361 233.297C222.4 233.376 222.439 233.444 222.478 233.503C222.615 233.718 222.771 233.835 222.947 233.855C223.123 233.874 223.28 233.884 223.417 233.884C223.554 233.884 223.651 233.855 223.71 233.796C223.886 233.796 223.994 233.776 224.033 233.737ZM232.541 233.796C232.247 234.031 231.983 234.187 231.749 234.265C231.514 234.344 231.338 234.402 231.221 234.441C231.103 234.48 230.996 234.51 230.898 234.529C230.8 234.568 230.683 234.608 230.546 234.647C230.429 234.686 230.311 234.705 230.194 234.705H229.783C229.314 234.705 228.943 234.647 228.669 234.529C227.926 234.216 227.398 233.816 227.085 233.327C226.987 233.151 226.86 232.887 226.703 232.535C226.547 232.183 226.469 231.792 226.469 231.361C226.469 230.755 226.557 230.168 226.733 229.601C226.928 229.171 227.163 228.78 227.437 228.428C227.769 228.115 228.131 227.861 228.522 227.665C229.089 227.509 229.51 227.431 229.783 227.431C230.194 227.431 230.634 227.489 231.103 227.607C231.397 227.822 231.671 228.047 231.925 228.281C232.101 228.536 232.267 228.839 232.423 229.191C232.502 229.504 232.541 229.895 232.541 230.364V230.804H227.877C227.877 231.097 227.926 231.459 228.023 231.889C228.082 232.026 228.131 232.183 228.17 232.359C228.229 232.515 228.297 232.681 228.375 232.857C228.825 233.483 229.471 233.796 230.311 233.796H230.605C230.82 233.796 231.123 233.708 231.514 233.532C231.592 233.473 231.68 233.424 231.778 233.385C231.876 233.346 231.954 233.297 232.013 233.239C232.267 233.121 232.443 233.014 232.541 232.916V233.796ZM231.133 229.836C231.133 229.699 231.113 229.582 231.074 229.484C231.055 229.386 231.025 229.279 230.986 229.161C230.869 228.809 230.742 228.584 230.605 228.487C230.487 228.389 230.39 228.32 230.311 228.281C230.233 228.203 230.038 228.164 229.725 228.164C229.138 228.164 228.737 228.34 228.522 228.692C228.424 228.77 228.356 228.868 228.317 228.985C228.278 229.083 228.209 229.2 228.111 229.337C228.092 229.513 228.033 229.787 227.935 230.159H231.133V229.836ZM239.662 227.548L239.838 227.607V229.103H239.222C239.163 229.005 239.114 228.946 239.075 228.927C239.036 228.907 238.987 228.868 238.929 228.809C238.831 228.731 238.665 228.692 238.43 228.692C238.195 228.692 237.98 228.77 237.785 228.927C237.511 229.083 237.257 229.308 237.022 229.601V233.62C237.022 233.737 237.071 233.796 237.169 233.796C237.169 233.874 237.237 233.913 237.374 233.913L238.283 234.001V234.5H234.675V234.001L235.379 233.913C235.497 233.913 235.575 233.874 235.614 233.796C235.653 233.796 235.673 233.776 235.673 233.737V228.604H234.675V228.105L236.435 227.607H237.022V228.897C237.139 228.8 237.276 228.643 237.433 228.428C237.472 228.33 237.53 228.252 237.609 228.193C237.706 228.135 237.804 228.047 237.902 227.929C238.019 227.812 238.146 227.714 238.283 227.636C238.498 227.499 238.714 227.431 238.929 227.431H239.222C239.242 227.47 239.32 227.489 239.457 227.489C239.457 227.528 239.525 227.548 239.662 227.548ZM247.109 233.796C247.168 233.796 247.197 233.737 247.197 233.62V229.836C247.197 229.054 246.963 228.633 246.493 228.575C246.298 228.536 246.102 228.516 245.907 228.516H245.408C245.271 228.516 245.134 228.545 244.997 228.604C244.86 228.643 244.733 228.682 244.616 228.721C244.499 228.76 244.371 228.819 244.235 228.897V233.62C244.235 233.679 244.264 233.737 244.323 233.796C244.401 233.835 244.44 233.864 244.44 233.884C244.459 233.904 244.489 233.913 244.528 233.913H245.144V234.5H241.859V233.913H242.592C242.67 233.913 242.758 233.874 242.856 233.796C242.875 233.757 242.885 233.698 242.885 233.62V228.604H241.859V228.105L243.677 227.607H244.235V228.311C244.45 228.154 244.665 228.047 244.88 227.988C244.978 227.929 245.075 227.88 245.173 227.841C245.291 227.802 245.398 227.753 245.496 227.695C245.613 227.636 245.711 227.597 245.789 227.577C245.887 227.558 245.975 227.528 246.053 227.489C246.151 227.45 246.259 227.431 246.376 227.431H246.581C247.246 227.431 247.745 227.626 248.077 228.017C248.41 228.408 248.576 228.946 248.576 229.631V233.532C248.576 233.728 248.625 233.835 248.723 233.855C248.762 233.874 248.801 233.894 248.84 233.913H249.485V234.5H246.288V234.001L246.933 233.913C246.992 233.913 247.051 233.874 247.109 233.796ZM255.616 227.665L255.968 227.753V229.425H255.176L255.029 228.428C254.892 228.369 254.746 228.32 254.589 228.281L254.237 228.164C254.159 228.125 254.042 228.105 253.885 228.105C253.611 228.105 253.328 228.193 253.034 228.369C252.839 228.624 252.741 228.868 252.741 229.103C252.741 229.298 252.819 229.484 252.976 229.66C253.171 229.875 253.386 230.041 253.621 230.159C253.758 230.276 253.954 230.384 254.208 230.481C254.482 230.579 254.658 230.667 254.736 230.745C254.834 230.804 254.941 230.863 255.058 230.921C255.313 231.078 255.489 231.205 255.586 231.303L255.821 231.567C256.017 231.743 256.114 232.026 256.114 232.417V232.447C256.114 232.76 256.066 233.082 255.968 233.415C255.596 234.021 255.117 234.402 254.53 234.559C254.178 234.696 253.797 234.764 253.386 234.764L252.741 234.705C252.604 234.666 252.487 234.637 252.389 234.617C252.311 234.617 252.233 234.598 252.154 234.559C252.076 234.52 251.998 234.5 251.92 234.5C251.842 234.5 251.754 234.48 251.656 234.441C251.578 234.441 251.47 234.392 251.333 234.295V232.417H252.125L252.301 233.679C252.36 233.718 252.428 233.757 252.506 233.796C252.604 233.816 252.702 233.855 252.8 233.913C253.034 234.05 253.289 234.099 253.562 234.06C254.09 234.021 254.501 233.786 254.794 233.356C254.814 233.278 254.824 233.16 254.824 233.004C254.824 232.672 254.794 232.466 254.736 232.388C254.677 232.31 254.618 232.241 254.56 232.183C254.501 232.124 254.452 232.065 254.413 232.007L254.149 231.86C254.051 231.821 253.944 231.772 253.826 231.713C253.729 231.635 253.621 231.576 253.504 231.537C253.386 231.479 253.259 231.41 253.122 231.332C252.927 231.215 252.692 231.097 252.418 230.98C252.34 230.882 252.242 230.804 252.125 230.745C252.027 230.667 251.949 230.589 251.89 230.511C251.617 230.198 251.48 229.885 251.48 229.572C251.48 228.575 251.978 227.9 252.976 227.548C253.25 227.47 253.523 227.431 253.797 227.431H254.354C254.472 227.431 254.57 227.45 254.648 227.489L255.234 227.548C255.332 227.548 255.459 227.587 255.616 227.665ZM261.64 228.516L261.258 228.575C261.102 228.653 260.985 228.692 260.906 228.692L260.701 228.78C260.642 228.8 260.574 228.839 260.496 228.897V233.62C260.496 233.698 260.525 233.767 260.584 233.825C260.662 233.884 260.73 233.913 260.789 233.913H261.405V234.5H258.12V233.913H258.853C258.931 233.913 259.019 233.874 259.117 233.796C259.137 233.757 259.146 233.698 259.146 233.62V224.996H258.09V224.468L259.938 223.94H260.496V228.311C260.593 228.291 260.76 228.184 260.994 227.988C261.17 227.91 261.346 227.841 261.522 227.783C261.698 227.724 261.835 227.675 261.933 227.636C262.031 227.577 262.148 227.548 262.285 227.548C262.383 227.47 262.481 227.431 262.578 227.431H262.842C263.351 227.431 263.683 227.499 263.84 227.636C264.016 227.773 264.162 227.871 264.28 227.929C264.456 228.105 264.573 228.33 264.632 228.604C264.769 228.858 264.837 229.191 264.837 229.601V233.532C264.837 233.728 264.896 233.835 265.013 233.855C265.052 233.874 265.091 233.894 265.13 233.913H265.776V234.5H262.608L262.549 234.001L263.194 233.913C263.253 233.913 263.312 233.874 263.37 233.796C263.449 233.796 263.488 233.737 263.488 233.62V229.924L263.458 229.337C263.361 229.161 263.273 229.015 263.194 228.897C263.038 228.78 262.891 228.672 262.754 228.575C262.657 228.536 262.549 228.516 262.432 228.516H261.64ZM270.207 233.532C270.207 233.728 270.304 233.855 270.5 233.913H271.292V234.5H267.831L267.889 233.913H268.623C268.642 233.894 268.662 233.884 268.681 233.884C268.701 233.864 268.74 233.835 268.799 233.796C268.838 233.757 268.857 233.669 268.857 233.532V228.516H267.889V227.988L269.679 227.431H270.207V233.532ZM268.857 224.849L268.975 224.615C269.131 224.556 269.239 224.497 269.297 224.439C269.415 224.38 269.522 224.351 269.62 224.351C269.874 224.351 270.089 224.439 270.265 224.615C270.324 224.634 270.363 224.673 270.383 224.732C270.402 224.771 270.431 224.81 270.471 224.849C270.49 224.947 270.5 225.084 270.5 225.26L270.471 225.583C270.431 225.641 270.392 225.69 270.353 225.729C270.314 225.768 270.285 225.817 270.265 225.876C270.167 225.974 270.079 226.023 270.001 226.023C269.864 226.081 269.737 226.111 269.62 226.111C269.503 226.111 269.287 226.032 268.975 225.876L268.857 225.583C268.818 225.504 268.799 225.426 268.799 225.348V225.055C268.799 224.996 268.818 224.928 268.857 224.849ZM275.425 233.796L275.835 233.884C275.874 233.904 275.923 233.913 275.982 233.913C276.06 233.913 276.129 233.943 276.187 234.001H276.569C276.999 234.001 277.37 233.933 277.683 233.796C278.29 233.366 278.642 232.838 278.739 232.212C278.837 232.016 278.886 231.752 278.886 231.42C278.886 230.775 278.857 230.335 278.798 230.1C278.739 229.963 278.681 229.807 278.622 229.631C278.466 229.22 278.182 228.878 277.771 228.604C277.478 228.487 277.194 228.428 276.921 228.428C276.647 228.428 276.471 228.457 276.393 228.516C276.295 228.516 276.207 228.526 276.129 228.545C276.07 228.565 275.992 228.584 275.894 228.604C275.718 228.702 275.562 228.77 275.425 228.809V233.796ZM280.177 229.425C280.294 229.895 280.353 230.335 280.353 230.745C280.353 231.41 280.255 231.977 280.059 232.447C279.903 232.975 279.678 233.385 279.385 233.679C279.033 233.992 278.642 234.246 278.211 234.441C277.566 234.617 277.067 234.705 276.715 234.705H276.246C276.187 234.666 276.119 234.647 276.041 234.647H275.894C275.757 234.588 275.601 234.559 275.425 234.559V236.7C275.425 236.798 275.464 236.847 275.542 236.847C275.62 236.944 275.679 236.993 275.718 236.993L276.569 237.052V237.609H273.137V237.052L273.782 236.993C273.978 236.993 274.075 236.896 274.075 236.7V228.604H273.137V228.105L274.897 227.548H275.425V228.311C275.503 228.213 275.601 228.135 275.718 228.076C275.855 227.998 275.972 227.929 276.07 227.871C276.559 227.577 277.018 227.431 277.449 227.431C277.898 227.431 278.25 227.489 278.505 227.607C278.896 227.783 279.238 228.037 279.531 228.369C279.688 228.565 279.903 228.917 280.177 229.425Z" fill="white"/>
<circle cx="58.5" cy="113" r="2.5" fill="white"/>
<circle cx="145.5" cy="133" r="2.5" fill="white"/>
<circle cx="235.5" cy="95" r="2.5" fill="white"/>
<path d="M59 113L145.5 133.5L236 95" stroke="white" stroke-opacity="0.5"/>
<path d="M58.5 129V210" stroke="white" stroke-opacity="0.2" stroke-dasharray="1 2"/>
<path d="M145 153V210" stroke="white" stroke-opacity="0.2" stroke-dasharray="1 2"/>
<path d="M235 116V210" stroke="white" stroke-opacity="0.2" stroke-dasharray="1 2"/>
</svg>
