<svg width="30" height="30" viewBox="0 0 30 30" fill="none" xmlns="http://www.w3.org/2000/svg">
<path d="M30 15C30 16.9543 29.6265 18.821 28.9463 20.5335C28.5826 21.4494 28.1314 22.3212 27.6024 23.138C26.9436 24.1567 26.1642 25.0904 25.2851 25.9182C24.7702 26.4037 24.2216 26.8525 23.6424 27.2614C21.1996 28.9867 18.2186 30 15 30C11.7814 30 8.80043 28.9867 6.35754 27.2614C5.63262 26.7496 4.95551 26.1759 4.33406 25.5465C1.65428 22.8373 0 19.1112 0 15C0 10.8888 1.65428 7.16268 4.33406 4.45348C4.99225 3.78738 5.71283 3.18305 6.48609 2.6492C8.90449 0.97834 11.8378 0 15 0C18.1622 0 21.0955 0.97834 23.5139 2.6492C24.1047 3.05637 24.6643 3.50572 25.189 3.99246C26.108 4.84225 26.9198 5.80652 27.6025 6.86203C28.1314 7.67877 28.5827 8.55059 28.9464 9.46652C29.6265 11.179 30 13.0457 30 15Z" fill="#E4BA42"/>
<path d="M22.9137 13.6505C22.4962 12.4397 20.7843 12.4397 20.4504 13.4417C20.1164 14.4438 21.2437 15.0282 22.9972 15.6128C24.7508 16.1974 25.8363 17.7422 25.6276 19.1199C25.4188 20.4976 24.8343 22.293 21.369 22.293C19.2032 22.293 17.9996 20.9393 17.4014 19.9241L19.3649 18.7441C19.3649 18.7441 20.0329 20.1637 21.2854 20.1637C22.538 20.1637 23.039 19.7462 23.039 18.7859C23.039 17.6169 18.9891 17.1994 18.3628 15.1953C17.7366 13.1913 18.5716 10.3522 21.4941 10.5609C23.3208 10.6914 24.3482 11.5884 24.862 12.2427L22.9137 13.6505Z" fill="#F2F2F2"/>
<path d="M13.8116 10.7698C13.8116 10.7698 13.8116 17.8257 13.8116 18.786C13.8116 19.7462 12.9766 20.2473 12.1416 20.0803C11.3065 19.9133 10.9308 18.9113 10.9308 18.9113L9.01025 20.2055C9.01025 20.2055 9.42773 22.1261 12.0581 22.2931C14.6884 22.4601 16.1914 20.8736 16.1914 19.5375C16.1914 18.2015 16.1914 10.7698 16.1914 10.7698H13.8116Z" fill="#F2F2F2"/>
<path d="M4.33447 2.64917V25.5465C4.95592 26.1759 5.63303 26.7495 6.35795 27.2614H23.6429C24.2221 26.8524 24.7706 26.4037 25.2855 25.9182H5.67773V3.99243H27.6028V23.1379C28.1318 22.3212 28.583 21.4494 28.9467 20.5334V2.64917H4.33447Z" fill="#F2F2F2"/>
<path d="M5.14736 22.2514C6.46168 22.2514 7.52715 21.1859 7.52715 19.8716C7.52715 18.5573 6.46168 17.4918 5.14736 17.4918C3.83304 17.4918 2.76758 18.5573 2.76758 19.8716C2.76758 21.1859 3.83304 22.2514 5.14736 22.2514Z" fill="#3F4A43"/>
</svg>
