<svg width="15" height="15" viewBox="0 0 15 15" fill="none" xmlns="http://www.w3.org/2000/svg">
<g id="my_location_24px">
<path id="icon/maps/my_location_24px" fill-rule="evenodd" clip-rule="evenodd" d="M13.0875 6.875C12.8 4.26875 10.7312 2.2 8.125 1.9125V0.625H6.875V1.9125C4.26875 2.2 2.2 4.26875 1.9125 6.875H0.625V8.125H1.9125C2.2 10.7312 4.26875 12.8 6.875 13.0875V14.375H8.125V13.0875C10.7312 12.8 12.8 10.7312 13.0875 8.125H14.375V6.875H13.0875ZM7.49996 5.00001C6.11871 5.00001 4.99996 6.11876 4.99996 7.50001C4.99996 8.88126 6.11871 10 7.49996 10C8.88121 10 9.99996 8.88126 9.99996 7.50001C9.99996 6.11876 8.88121 5.00001 7.49996 5.00001ZM3.12496 7.5C3.12496 9.91875 5.08121 11.875 7.49996 11.875C9.91871 11.875 11.875 9.91875 11.875 7.5C11.875 5.08125 9.91871 3.125 7.49996 3.125C5.08121 3.125 3.12496 5.08125 3.12496 7.5Z" fill="black" fill-opacity="0.54"/>
</g>
</svg>
