<svg width="40" height="40" viewBox="0 0 40 40" fill="none" xmlns="http://www.w3.org/2000/svg">
<g id="perm_identity_24px">
<path id="icon/action/perm_identity_24px" fill-rule="evenodd" clip-rule="evenodd" d="M19.9998 6.66666C16.3165 6.66666 13.3331 9.64999 13.3331 13.3333C13.3331 17.0167 16.3165 20 19.9998 20C23.6831 20 26.6665 17.0167 26.6665 13.3333C26.6665 9.64999 23.6831 6.66666 19.9998 6.66666ZM23.3332 13.3333C23.3332 11.5 21.8332 9.99999 19.9998 9.99999C18.1665 9.99999 16.6665 11.5 16.6665 13.3333C16.6665 15.1667 18.1665 16.6667 19.9998 16.6667C21.8332 16.6667 23.3332 15.1667 23.3332 13.3333ZM29.9999 28.3333C29.6665 27.15 24.4999 25 19.9999 25C15.4999 25 10.3332 27.15 9.99987 28.35V30H29.9999V28.3333ZM6.6665 28.3333C6.6665 23.9 15.5498 21.6667 19.9998 21.6667C24.4498 21.6667 33.3332 23.9 33.3332 28.3333V33.3333H6.6665V28.3333Z" fill="#F2F2F2"/>
</g>
</svg>
