<svg width="21" height="21" viewBox="0 0 21 21" fill="none" xmlns="http://www.w3.org/2000/svg">
<path d="M20.65 18.6473V10.4999C20.649 10.4458 20.6352 10.3926 20.6097 10.3449H20.6133L19.7564 8.6316C19.58 8.27442 19.2158 8.04876 18.8174 8.04989H16.45V7.69989C16.45 7.60707 16.4131 7.51806 16.3475 7.45244L14.4525 5.55752C14.3266 5.43287 14.1708 5.34261 14 5.29537V2.9346L14.7 2.74665V3.59435V3.5968C14.6996 3.95622 14.8792 4.29195 15.1784 4.49106C15.2825 4.56046 15.4156 4.56908 15.5278 4.51369C15.6399 4.45829 15.7139 4.34728 15.722 4.22248C15.7301 4.09769 15.671 3.97805 15.5669 3.90866C15.4625 3.83928 15.3998 3.72217 15.4 3.5968V3.59435V2.52789C15.645 2.38639 15.7807 2.11131 15.744 1.83078C15.7072 1.55026 15.5052 1.31944 15.232 1.24583L10.6799 0.0236222C10.562 -0.00787407 10.438 -0.00787407 10.3201 0.0236222L5.768 1.24583C5.46187 1.32941 5.24952 1.6075 5.24952 1.92484C5.24952 2.24217 5.46187 2.52027 5.768 2.60384L7 2.9346V5.24987H6.97795C6.66678 5.25001 6.3718 5.38853 6.17295 5.62787L4.63295 7.47589C4.57989 7.53852 4.55053 7.6178 4.55 7.69989V8.04989H2.1826C1.78456 8.0485 1.42035 8.27357 1.24355 8.6302L0.38675 10.3435H0.39025C0.364543 10.3917 0.350742 10.4453 0.35 10.4999V18.6473C0.134137 18.7713 0.00075075 19.001 0 19.25V19.95C0 20.3366 0.313401 20.65 0.7 20.65H5.3473C5.47134 20.8659 5.70104 20.9993 5.95 21H15.05C15.299 20.9993 15.5287 20.8659 15.6527 20.65H20.3C20.6866 20.65 21 20.3366 21 19.95V19.25C20.9992 19.001 20.8659 18.7713 20.65 18.6473ZM15.4 18.55H15.05V10.8499H19.95V18.55H15.4ZM11.55 18.55H9.45V14.6999H11.55V18.55ZM11.9 13.9999H9.1C8.9067 13.9999 8.75 14.1566 8.75 14.3499V18.55H6.65V10.8499H14.35V18.55H12.25V14.3499C12.25 14.1566 12.0933 13.9999 11.9 13.9999ZM15.75 8.04989V8.7499H5.25V8.04989H15.75ZM15.05 9.4499V10.1499H5.95V9.4499H15.05ZM18.8174 8.7499C18.9501 8.74947 19.0714 8.82454 19.1303 8.94345L19.7337 10.1499H15.75V9.4499C16.1366 9.4499 16.45 9.1365 16.45 8.7499H18.8174ZM10.5 0.699828L15.0549 1.92484H15.0503L10.5017 3.14985L5.95 1.92204L10.5 0.699828ZM7.7 3.12255L10.3201 3.82605C10.4379 3.85778 10.5621 3.85778 10.6799 3.82605L13.3 3.12255V5.24987H7.7V3.12255ZM6.70915 6.07587C6.77562 5.99607 6.87409 5.94991 6.97795 5.94987H13.7099C13.8028 5.9498 13.8919 5.98669 13.9577 6.05242L15.2551 7.34988H5.64725L6.70915 6.07587ZM1.8697 8.94345C1.92856 8.82454 2.04993 8.74947 2.1826 8.7499H4.55C4.55 9.1365 4.8634 9.4499 5.25 9.4499V10.1499H1.2663L1.8697 8.94345ZM0.7 19.25H5.25V19.95H0.7V19.25ZM5.6 18.55H1.05V10.8499H5.95V18.55H5.6ZM5.95 20.3V19.25H15.05V20.3H5.95ZM20.3 19.95H15.75V19.25H20.3V19.95Z" fill="white"/>
<path d="M9.44963 11.5499C9.25632 11.5499 9.09961 11.7066 9.09961 11.8999V12.5999C9.09961 12.7932 9.25632 12.9499 9.44963 12.9499C9.64294 12.9499 9.79965 12.7932 9.79965 12.5999V11.8999C9.79965 11.7066 9.64294 11.5499 9.44963 11.5499Z" fill="white"/>
<path d="M4.55019 11.9C4.35689 11.9 4.2002 12.0567 4.2002 12.25V12.95C4.2002 13.1433 4.35689 13.3 4.55019 13.3C4.74349 13.3 4.90018 13.1433 4.90018 12.95V12.25C4.90018 12.0567 4.74349 11.9 4.55019 11.9Z" fill="white"/>
<path d="M2.45009 11.9C2.2568 11.9 2.1001 12.0567 2.1001 12.25V12.95C2.1001 13.1433 2.2568 13.3 2.45009 13.3C2.64339 13.3 2.80009 13.1433 2.80009 12.95V12.25C2.80009 12.0567 2.64339 11.9 2.45009 11.9Z" fill="white"/>
<path d="M4.55019 13.9999C4.35689 13.9999 4.2002 14.1566 4.2002 14.3499V15.0499C4.2002 15.2432 4.35689 15.3999 4.55019 15.3999C4.74349 15.3999 4.90018 15.2432 4.90018 15.0499V14.3499C4.90018 14.1566 4.74349 13.9999 4.55019 13.9999Z" fill="white"/>
<path d="M2.45009 13.9999C2.2568 13.9999 2.1001 14.1566 2.1001 14.3499V15.0499C2.1001 15.2432 2.2568 15.3999 2.45009 15.3999C2.64339 15.3999 2.80009 15.2432 2.80009 15.0499V14.3499C2.80009 14.1566 2.64339 13.9999 2.45009 13.9999Z" fill="white"/>
<path d="M4.55019 16.1C4.35689 16.1 4.2002 16.2567 4.2002 16.45V17.15C4.2002 17.3433 4.35689 17.5 4.55019 17.5C4.74349 17.5 4.90018 17.3433 4.90018 17.15V16.45C4.90018 16.2567 4.74349 16.1 4.55019 16.1Z" fill="white"/>
<path d="M2.45009 16.1C2.2568 16.1 2.1001 16.2567 2.1001 16.45V17.15C2.1001 17.3433 2.2568 17.5 2.45009 17.5C2.64339 17.5 2.80009 17.3433 2.80009 17.15V16.45C2.80009 16.2567 2.64339 16.1 2.45009 16.1Z" fill="white"/>
<path d="M18.5497 11.9C18.3564 11.9 18.1997 12.0567 18.1997 12.25V12.95C18.1997 13.1433 18.3564 13.3 18.5497 13.3C18.743 13.3 18.8997 13.1433 18.8997 12.95V12.25C18.8997 12.0567 18.743 11.9 18.5497 11.9Z" fill="white"/>
<path d="M16.4501 11.9C16.2568 11.9 16.1001 12.0567 16.1001 12.25V12.95C16.1001 13.1433 16.2568 13.3 16.4501 13.3C16.6433 13.3 16.8 13.1433 16.8 12.95V12.25C16.8 12.0567 16.6433 11.9 16.4501 11.9Z" fill="white"/>
<path d="M18.5497 13.9999C18.3564 13.9999 18.1997 14.1566 18.1997 14.3499V15.0499C18.1997 15.2432 18.3564 15.3999 18.5497 15.3999C18.743 15.3999 18.8997 15.2432 18.8997 15.0499V14.3499C18.8997 14.1566 18.743 13.9999 18.5497 13.9999Z" fill="white"/>
<path d="M16.4501 13.9999C16.2568 13.9999 16.1001 14.1566 16.1001 14.3499V15.0499C16.1001 15.2432 16.2568 15.3999 16.4501 15.3999C16.6433 15.3999 16.8 15.2432 16.8 15.0499V14.3499C16.8 14.1566 16.6433 13.9999 16.4501 13.9999Z" fill="white"/>
<path d="M18.5497 16.1C18.3564 16.1 18.1997 16.2567 18.1997 16.45V17.15C18.1997 17.3433 18.3564 17.5 18.5497 17.5C18.743 17.5 18.8997 17.3433 18.8997 17.15V16.45C18.8997 16.2567 18.743 16.1 18.5497 16.1Z" fill="white"/>
<path d="M16.4501 16.1C16.2568 16.1 16.1001 16.2567 16.1001 16.45V17.15C16.1001 17.3433 16.2568 17.5 16.4501 17.5C16.6433 17.5 16.8 17.3433 16.8 17.15V16.45C16.8 16.2567 16.6433 16.1 16.4501 16.1Z" fill="white"/>
<path d="M11.5497 11.5499C11.3564 11.5499 11.1997 11.7066 11.1997 11.8999V12.5999C11.1997 12.7932 11.3564 12.9499 11.5497 12.9499C11.743 12.9499 11.8997 12.7932 11.8997 12.5999V11.8999C11.8997 11.7066 11.743 11.5499 11.5497 11.5499Z" fill="white"/>
</svg>
